<?xml version="1.0" encoding="utf-8" ?>
<svg xmlns="http://www.w3.org/2000/svg" xmlns:xlink="http://www.w3.org/1999/xlink" width="1038" height="1038">
	<path fill="#03A8FF" transform="scale(1.01367 1.01367)" d="M-0 -0L1024 0L1024 1024L-0 1024L0 -0Z"/>
	<path fill="#D83B3D" transform="scale(1.01367 1.01367)" d="M252.532 792.959L265.706 793.085L265.673 805.087L251.993 804.984L252.532 792.959Z"/>
	<path fill="#E4F5FF" transform="scale(1.01367 1.01367)" d="M251.45 450.25C252.579 450.063 253.906 449.77 255.034 450.072C257.301 450.678 258.961 452.035 260.209 454.017C261.194 455.58 261.236 457.798 260.722 459.531C260.005 461.952 258.301 463.046 256.192 464.192C254.726 464.384 253.16 464.326 251.719 463.962C250.121 463.558 248.558 462.141 247.775 460.717C246.862 459.055 246.703 456.29 247.279 454.504C247.992 452.298 249.453 451.232 251.45 450.25Z"/>
	<path fill="#E4F5FF" transform="scale(1.01367 1.01367)" d="M287.585 450.011C289.128 449.942 290.806 449.878 292.25 450.524C294.071 451.337 295.405 453.143 296.064 454.976C296.697 456.733 296.489 458.609 295.659 460.277C294.612 462.379 292.905 463.362 290.75 464.03C289.52 464.124 288.16 464.288 286.951 463.982C284.989 463.485 283.315 461.772 282.444 460C281.459 457.998 281.418 456.503 282.292 454.438C283.304 452.048 285.335 451.016 287.585 450.011Z"/>
	<path fill="#E4F5FF" transform="scale(1.01367 1.01367)" d="M232.013 449.75C233.121 449.572 234.314 449.364 235.414 449.683C237.383 450.254 239.119 451.955 240.119 453.702C241.16 455.522 241.578 457.482 240.891 459.501C240.023 462.051 237.59 462.807 235.348 463.881C234.109 464.147 232.476 464.143 231.25 463.823C229.538 463.377 228.177 461.964 227.323 460.481C226.37 458.829 226.214 456.566 226.799 454.761C227.679 452.044 229.552 450.886 232.013 449.75Z"/>
	<path fill="#E4F5FF" transform="scale(1.01367 1.01367)" d="M269.634 450.013C270.871 449.949 272.229 449.842 273.433 450.184C275.514 450.775 277.643 452.841 278.504 454.807C279.16 456.306 279.152 457.979 278.567 459.5C277.504 462.262 275.52 463.272 272.969 464.489C271.582 464.56 270.081 464.681 268.728 464.316C266.661 463.76 264.94 462.313 264.043 460.37C263.223 458.594 263.182 456.195 263.988 454.407C265.122 451.891 267.221 451.023 269.634 450.013Z"/>
	<path fill="#E2B12E" transform="scale(1.01367 1.01367)" d="M720.552 501.742C726.117 501.096 731.901 501.226 737.5 501.122C744.044 501.001 751.028 500.593 757.466 501.937C764.06 503.313 770.887 507.15 776.133 511.293C785.457 518.658 790.804 532.035 794.683 542.969L794.227 543.219L793.431 542.986L793.468 541.75C792.633 540.736 792.523 540.529 791.292 540.129C790.769 539.66 790.351 538.087 790.045 537.355L786.44 528.75C785.243 526.119 783.681 523.621 781.99 521.282C775.756 512.66 765.499 505.499 754.814 503.934L754 503.822C748.587 503.005 743.154 502.977 737.691 502.843L696.206 502.392C698.954 501.614 701.854 501.843 704.684 501.848C709.933 501.857 715.325 502.139 720.552 501.742Z"/>
	<path fill="#F49232" transform="scale(1.01367 1.01367)" d="M338.722 303.045C341.816 299.852 345.414 297.316 350.055 297.138C352.228 297.055 353.921 297.904 355.549 299.25C356.234 300.639 356.243 301.258 355.75 302.755C354.22 307.396 350.735 313.282 347.386 316.821C345.083 317.94 342.59 318.628 340.156 319.408C337.852 317.422 335.8 313.901 332.961 312.757L334.747 308.434C335.703 306.567 337.442 304.732 338.722 303.045Z"/>
	<path fill="#E4F5FF" transform="scale(1.01367 1.01367)" d="M637.556 303.75L638.706 303.638C642.153 306.046 643.592 308.549 645.412 312.216C648.087 311.864 650.746 311.939 653.436 311.977C655.591 313.676 657.544 315.317 658.413 318C657.296 318.903 654.953 318.539 653.484 318.541L638.25 318.559L618.75 318.446L618.081 317.75C619.213 315.668 620.914 313.712 623.014 312.556C624.675 311.641 626.054 311.568 627.851 312.119C628.914 312.444 629.088 312.568 630.25 312.468L630.721 310.167C631.691 306.895 634.743 305.253 637.556 303.75Z"/>
	<path fill="#E4F5FF" transform="scale(1.01367 1.01367)" d="M404.902 210.25C405.736 209.995 406.634 209.954 407.5 209.854C410.508 211.744 409.287 215.338 410.152 218.25C411.515 218.02 412.872 218.088 414.25 218.091C416.756 219.294 417.687 222.159 419.641 223.214C422.316 224.659 423.319 223.533 425.477 226.5L425.25 227.393L390.583 227.454L380.213 227.338C378.625 227.316 377.197 227.541 375.793 226.75C375.89 226.085 376.056 225.558 376.392 224.971C377.486 223.055 379.172 221.543 381.375 221.055C384.116 220.448 385.527 221.556 387.75 222.916L388.608 222.557C389.237 220.864 389.862 219.161 391.25 217.928C392.428 216.882 394.218 216.032 395.841 216.168C397.66 216.322 398.784 217.489 399.927 218.786L400.385 219.341L400.288 218.767L400.167 217.921C400.001 216.802 399.881 215.887 400.147 214.757C400.624 212.728 403.141 211.07 404.902 210.25Z"/>
	<path fill="#F8D18E" transform="scale(1.01367 1.01367)" d="M240.331 349.211L240.72 349.608C241.734 350.66 242.566 351.67 243.399 352.869C248.688 360.485 257.886 364.046 266.694 365.585C269.555 366.085 275.255 367.108 277.961 366.062L278.019 373.974C277.293 374.907 276.661 375.471 275.603 376.03C271.207 378.352 265.172 377.688 260.303 377.669C257.263 377.656 253.903 377.839 250.939 377.217C247.515 376.498 244.654 375.061 241.364 374.103L240.446 373.844L240.331 349.211Z"/>
	<path fill="#F49232" transform="scale(1.01367 1.01367)" d="M240.38 334.399C247.906 341.238 254.294 345.798 264.25 348.523L265.146 348.774C269.203 349.843 273.497 349.511 277.66 349.539L277.961 366.062C275.255 367.108 269.555 366.085 266.694 365.585C257.886 364.046 248.688 360.485 243.399 352.869C242.566 351.67 241.734 350.66 240.72 349.608L240.331 349.211L240.38 334.399Z"/>
	<path fill="#F8D18E" transform="scale(1.01367 1.01367)" d="M340.156 319.408C342.59 318.628 345.083 317.94 347.386 316.821C353.13 317.618 356.757 319.455 360.39 324.179C363.419 328.12 365.389 333.749 364.492 338.75C364.151 340.645 363.182 342.626 362.393 344.383C359.078 348.204 354.046 349.602 349.473 351.393C343.071 349.222 338.685 346.102 335.196 340.228L333.599 333.05L333.767 332.009L333.25 331.463L332.256 332.198L330.91 331.386C331.689 330.433 332.313 329.61 333.436 329.032L334.107 328.75C334.416 327.309 334.988 326.077 335.596 324.747L340.156 319.408Z"/>
	<path fill="#025EB9" transform="scale(1.01367 1.01367)" d="M845.952 588.126C841.397 587.534 836.342 587.954 831.728 587.943L831.537 526.524L845.481 526.517L845.952 588.126Z"/>
	<path fill="#025EB9" transform="scale(1.01367 1.01367)" d="M920.606 526.813L934.856 526.591L934.802 587.88C930.078 587.865 924.991 588.249 920.315 587.737L920.606 526.813Z"/>
	<path fill="#025EB9" transform="scale(1.01367 1.01367)" d="M847.918 526.503L851.75 526.528C852.995 525.273 852.519 523.345 852.518 521.611C852.517 516.315 851.736 509.551 852.922 504.444L852.998 526.491C856.106 526.468 860.79 525.842 863.66 526.793L863.988 586.62L863.456 587.75L847.546 587.816L847.918 526.503Z"/>
	<path fill="#F8D18E" transform="scale(1.01367 1.01367)" d="M161.437 586.071C163.249 583.822 166.821 582.159 169.314 580.689C174.668 577.533 180.934 572.966 186.986 571.599C187.56 574.517 188.513 576.529 190.814 578.454L195.898 583.236L198.13 587.958C199.197 592.73 199.804 596.019 197.646 600.606L197.203 601.112C193.363 605.603 190.947 613.122 184 614.008C180.307 614.478 175.5 610.973 172.886 608.619C170.473 606.448 168.852 603.375 166.506 601.332C164.637 596.568 164.248 590.274 161.437 586.071Z"/>
	<path fill="#01192E" transform="scale(1.01367 1.01367)" d="M281.73 852.967C286.052 851.668 293.147 852.767 297.75 852.834C301.489 852.889 306.437 852.33 310.038 853.173L309.957 861.3L310.25 863.947C311.875 864.836 313.955 864.483 315.807 864.477C320.658 864.463 327.229 863.69 331.868 864.802L332.5 864.968C334.684 865.518 336.675 866.219 338.686 867.228C346.354 871.076 350.135 877.65 352.748 885.494L275.455 885.896L280.403 861.072L281.73 852.967Z"/>
	<path fill="#030607" transform="scale(1.01367 1.01367)" d="M281.73 852.967C286.052 851.668 293.147 852.767 297.75 852.834C301.489 852.889 306.437 852.33 310.038 853.173L309.957 861.3L280.403 861.072L281.73 852.967Z"/>
	<path fill="#022397" transform="scale(1.01367 1.01367)" d="M304.371 265.018L305.365 264.155C307.254 269.402 314.145 275.061 317.856 279.25L338.722 303.045C337.442 304.732 335.703 306.567 334.747 308.434L332.961 312.757C335.8 313.901 337.852 317.422 340.156 319.408L335.596 324.747C334.988 326.077 334.416 327.309 334.107 328.75L333.436 329.032C332.313 329.61 331.689 330.433 330.91 331.386L332.256 332.198L333.25 331.463L333.767 332.009L333.599 333.05L335.196 340.228L333.767 341.14C332.013 342.268 330.4 343.46 328.25 343.577C324.375 343.786 320.267 343.467 316.368 343.441C313.736 343.423 310.186 343.751 307.685 342.938C304.831 342.01 302.768 340.059 300.548 338.138C303.218 334.645 305.973 330.443 307.129 326.153C308.043 322.765 307.752 318.847 307.679 315.36C307.474 305.629 306.136 295.975 305.598 286.253L304.371 265.018Z"/>
	<path fill="#E4F5FF" transform="scale(1.01367 1.01367)" d="M311.109 314.093L312.073 313.901L328.623 332.364C329.67 332.303 330.08 332.005 330.91 331.386L332.256 332.198L333.25 331.463L333.767 332.009L333.599 333.05C332.604 334.808 331.247 336.133 329.851 337.566L318.428 324.317C315.83 321.37 311.889 318.023 311.109 314.093Z"/>
	<path fill="#E4F5FF" transform="scale(1.01367 1.01367)" d="M309.113 280.995L309.382 279.71C312.061 281.536 314.241 284.263 316.471 286.602C323.091 293.545 328.808 300.929 334.747 308.434L332.961 312.757C332.43 312.555 332.267 312.524 331.746 312.143C329.87 310.772 327.992 308.404 326.328 306.715L314.315 294.312C313.131 293.052 309.952 290.198 309.548 288.656C309.01 286.604 309.299 283.191 309.113 280.995Z"/>
	<path fill="#025EB9" transform="scale(1.01367 1.01367)" d="M311.109 314.093L309.405 295.862L323.976 311.233C328.267 315.654 332.355 319.426 335.596 324.747C334.988 326.077 334.416 327.309 334.107 328.75L333.436 329.032C332.313 329.61 331.689 330.433 330.91 331.386C330.08 332.005 329.67 332.303 328.623 332.364L312.073 313.901L311.109 314.093Z"/>
	<path fill="#01192E" transform="scale(1.01367 1.01367)" d="M209.988 852.727L237.995 852.754L239.716 861.025L245.586 885.496L166.667 885.913C167.712 878.615 170.102 873.191 176.274 868.809C184.125 863.234 194.881 864.9 204.021 864.906C205.535 864.907 207.698 865.224 209.081 864.562C209.802 864.216 209.77 863.473 209.91 862.749L210.085 861.496L209.988 852.727Z"/>
	<path fill="#030607" transform="scale(1.01367 1.01367)" d="M209.988 852.727L237.995 852.754L239.716 861.025L210.085 861.496L209.988 852.727Z"/>
	<path fill="#E4F5FF" transform="scale(1.01367 1.01367)" d="M120.529 775.214L157.039 774.951C161.893 774.942 167.897 774.283 172.645 775.2C174.1 775.481 175.63 776.278 176.712 777.288C180.999 781.292 180.18 787.787 180.19 793.128C180.119 798 180.634 800.797 176.928 804.369L176.417 804.85L172.148 805.409C160.179 806.342 147.7 805.688 135.67 805.713C127.741 805.73 119.042 806.624 111.23 805.487C108.498 805.089 105.869 804.099 103.793 802.25C100.657 799.458 98.54 795.444 98.4706 791.203C98.3964 786.672 99.8408 782.503 103.091 779.252C107.898 774.443 114.28 775.337 120.529 775.214Z"/>
	<path fill="#E4F5FF" transform="scale(1.01367 1.01367)" d="M498.327 103.575C508.093 102.581 519.442 105.395 523.89 115.189C524.258 116 525.232 120.006 525.628 120.358C525.817 120.526 529.694 120.505 530.43 120.628C532.917 121.046 535.375 122.422 537.25 124.074C540.396 126.846 541.94 130.714 542.005 134.854C542.064 138.557 540.893 141.458 538.321 144.098C533.096 149.461 526.868 148.978 520.03 149.015L506.25 149.034L473.5 148.934C470.031 148.552 466.875 145.82 464.86 143.11C462.477 139.904 462.006 136.266 462.593 132.399C463.119 128.938 465.171 125.967 467.982 123.944C472.047 121.019 475.935 121.429 480.577 122.11C481.122 119.833 481.875 117.405 482.987 115.334C486.28 109.203 491.83 105.591 498.327 103.575Z"/>
	<path fill="#025EB9" transform="scale(1.01367 1.01367)" d="M911.958 503.521C912.811 505.911 912.458 508.992 912.466 511.527L912.477 526.735L918.02 526.705L918.179 571.688L918.171 582.735C918.169 584.247 917.894 586.47 918.225 587.908C913.009 587.599 907.737 588.231 902.526 587.621L902.536 527.25C901.48 526.585 901.635 526.777 900.5 526.989C899.841 528.259 900.1 530.031 900.106 531.446L900.15 541.464L900.373 587.831L884.141 587.922L884.268 542.497L884.348 532.429C884.358 531.261 884.664 529.077 884.386 528C884.264 527.532 883.858 527.19 883.594 526.786L881.939 527.266C880.867 533.566 881.837 541.438 881.888 547.881L882.016 587.786C878.492 587.753 868.548 588.731 865.902 587.043L865.934 526.475L883.726 526.496L912.058 526.727L911.958 503.521Z"/>
	<path fill="#E4F5FF" transform="scale(1.01367 1.01367)" d="M843.161 777.89L843.298 771.42L914.048 771.926C919.075 772.541 923.7 775.124 926.772 779.199C929.51 782.829 930.927 787.251 930.164 791.78C929.27 797.087 926.332 801.672 921.894 804.669C919.214 806.477 915.952 807.579 912.74 807.937C903.842 808.932 894.285 808.073 885.3 808.146C871.383 808.259 856.941 809.215 843.078 808.311L843.161 777.89Z"/>
	<path fill="#E24F0D" transform="scale(1.01367 1.01367)" d="M223.145 290.059C222.727 279.364 220.426 266.976 223.92 256.722C227.677 245.699 237.226 236.897 247.542 231.907C262.17 224.831 280.45 226.337 294.254 234.73C302.973 240.031 310.622 246.712 320.379 250.09C316.923 256.28 311.558 260.841 305.365 264.155L304.371 265.018L303.622 264.826C295.617 267.305 287.064 267.617 278.735 267.628C267.188 267.644 255.79 267.096 244.921 262.884C244.435 269.954 245.117 277.326 243.627 284.25L243.436 285.212C242.955 287.564 242.169 289.644 241.244 291.842L240.749 291.385C237.658 288.588 234.378 286.86 230.12 287.076C227.297 287.219 225.367 288.468 223.145 290.059Z"/>
	<path fill="#B94000" transform="scale(1.01367 1.01367)" d="M244.921 262.884C243.736 260.315 242.574 257.949 243.25 255.073C245.487 254.673 248.218 255.865 250.401 256.41L262 259.05C275.257 261.88 288.444 263.536 302 263.654L303.622 264.826C295.617 267.305 287.064 267.617 278.735 267.628C267.188 267.644 255.79 267.096 244.921 262.884Z"/>
	<path fill="#E24F0D" transform="scale(1.01367 1.01367)" d="M675.245 787.544C673.479 793.43 672.44 800.847 672.434 807.003L470.813 807.953C470.982 801.546 470.706 795.256 469.691 788.923C472.68 788.012 476.831 788.515 479.961 788.508L500.505 788.441L675.245 787.544Z"/>
	<path fill="#F8D18E" transform="scale(1.01367 1.01367)" d="M244.921 262.884C255.79 267.096 267.188 267.644 278.735 267.628C287.064 267.617 295.617 267.305 303.622 264.826L304.371 265.018L305.598 286.253C306.136 295.975 307.474 305.629 307.679 315.36C307.752 318.847 308.043 322.765 307.129 326.153C305.973 330.443 303.218 334.645 300.548 338.138C293.791 344.756 287.274 348.314 277.818 349.604L277.66 349.539C273.497 349.511 269.203 349.843 265.146 348.774L264.25 348.523C254.294 345.798 247.906 341.238 240.38 334.399C234.713 327.944 232.38 319.921 231.079 311.65C229.895 311.378 228.676 311.101 227.586 310.547C224.46 308.959 222.218 305.822 221.129 302.55C219.515 297.697 221.033 294.317 223.145 290.059C225.367 288.468 227.297 287.219 230.12 287.076C234.378 286.86 237.658 288.588 240.749 291.385L241.244 291.842C242.169 289.644 242.955 287.564 243.436 285.212L243.627 284.25C245.117 277.326 244.435 269.954 244.921 262.884Z"/>
	<path fill="#030607" transform="scale(1.01367 1.01367)" d="M295.339 275.627C296.602 275.683 298.034 275.716 299.25 276.071C300.52 276.443 301.373 277.389 302.002 278.5L301.5 278.969C299.242 278.41 297.089 278.534 294.785 278.592C293.148 279.043 290.201 280.82 288.651 280.386L288.547 278.75C290.453 276.572 292.585 276.191 295.339 275.627Z"/>
	<path fill="#030607" transform="scale(1.01367 1.01367)" d="M261.98 276.61L264.75 276.31C268.078 276.193 269.69 276.535 272.169 278.75L271.903 279.75C270.113 280.192 268.313 279.37 266.543 278.888C264.304 278.926 262.357 279.292 260.256 280.095C259.308 280.457 258.929 280.652 257.9 280.66L257.568 279.75C258.831 278.165 260.191 277.511 261.98 276.61Z"/>
	<path fill="#F49232" transform="scale(1.01367 1.01367)" d="M282.519 294.223L282.915 294.513C285.648 296.576 290.596 302.099 290.98 305.619C291.129 306.991 290.87 308.314 289.941 309.376C288.531 310.987 286.665 310.842 284.664 311.063C283.56 310.872 282.561 310.585 281.496 310.25L281.66 309.25C283.855 308.54 286.221 308.423 288.506 308.172C286.999 303.386 284.483 298.855 282.519 294.223Z"/>
	<path fill="#01192E" transform="scale(1.01367 1.01367)" d="M266.322 286.25C266.919 286.271 267.907 286.237 268.5 286.447C269.543 286.817 270.069 287.37 270.636 288.293C271.506 289.708 271.695 291.721 271.046 293.25C270.4 294.77 269.585 295.022 268.25 295.732L267.43 295.846C265.926 295.74 265.217 295.088 264.308 294.017C263.044 292.527 263.448 290.551 263.608 288.75C264.552 287.332 264.731 287.043 266.322 286.25Z"/>
	<path fill="#030607" transform="scale(1.01367 1.01367)" d="M297.094 286.25C297.542 286.155 298.305 285.965 298.75 286.008C299.978 286.126 301.113 287.179 301.641 288.25C302.334 289.653 302.305 291.457 301.832 292.928C301.334 294.475 300.202 295.071 298.834 295.75L298.363 295.78C296.476 295.624 296.197 295.196 294.915 294C294.531 292.926 293.975 291.628 294.153 290.467C294.5 288.203 295.321 287.471 297.094 286.25Z"/>
	<path fill="#F49232" transform="scale(1.01367 1.01367)" d="M231.031 295.25L231.61 295.184C234.193 295.186 236.533 296.876 238.25 298.678C240.7 301.248 240.585 303.687 240.376 307C239.327 308.068 238.603 308.434 237.25 308.977L236.691 308.369L236.645 307.716L236.565 306.75C236.48 305.567 236.526 304.414 235.886 303.358C234.531 301.123 231.304 301.507 229 301.098C227.453 299.71 227.624 299.7 227.47 297.75C228.55 296.351 229.41 295.913 231.031 295.25Z"/>
	<path fill="#E24F0D" transform="scale(1.01367 1.01367)" d="M278.059 319.25C280.042 318.776 282.481 320.008 284.5 320.322C287.991 320.867 291.634 320.17 294.976 319.189L295.5 319.032L296.25 319.626C296.198 321.1 295.531 321.961 294.753 323.147L292.342 325.118C290.151 326.673 287.589 326.944 284.97 326.348C282.728 325.838 279.22 324.128 278.108 322.024C277.463 320.805 277.694 320.49 278.059 319.25Z"/>
	<path fill="#022397" transform="scale(1.01367 1.01367)" d="M852.922 504.444C853.853 503.879 855.247 503.674 856.309 503.341C852.655 492.324 840.088 491.719 831 488.01C827.098 486.417 823.94 484.311 820.957 481.333C816.844 477.226 813.653 472.151 812.431 466.406C811.243 460.819 811.635 454.898 811.633 449.211L811.672 424.094L811.674 335.58C806.913 332.915 802.614 328.884 799.2 324.662C790.448 313.838 782.806 297.411 784.552 283.184C785.511 275.367 790.59 267.993 796.739 263.25C803.005 258.417 811.692 257.445 819.317 258.696C826.496 259.874 833.103 264.374 837.266 270.259C842.614 277.821 843.865 286.501 842.168 295.458C839.03 312.018 830.656 326.103 816.664 335.556L816.548 412.107L816.542 443.85C816.546 449.487 816.244 455.339 816.659 460.954C816.891 464.091 817.422 466.889 818.735 469.747C821.921 476.683 827.698 481.982 835 484.387C838.467 485.53 842.137 486.034 845.553 487.374C853.079 490.327 858.192 495.619 861.376 502.945L861.62 503.519L875.038 503.547L875.006 454.637L891.002 454.625L890.95 503.106C891.913 503.681 894.242 503.333 895.464 503.316C900.267 503.248 907.432 502.225 911.958 503.521L912.058 526.727L883.726 526.496L865.934 526.475L863.66 526.793C860.79 525.842 856.106 526.468 852.998 526.491L852.922 504.444Z"/>
	<path fill="#E4F5FF" transform="scale(1.01367 1.01367)" d="M809.529 272.597C812.12 272.199 815.28 272.036 817.75 273.063C821.348 274.559 824.087 277.523 825.439 281.157C826.615 284.318 826.122 287.513 824.736 290.503C823.169 293.887 819.997 295.7 816.643 296.95C814.31 297.561 812.223 297.561 809.89 296.899C806.538 295.946 803.66 293.68 802.01 290.59C800.401 287.579 800.109 284.293 801.209 281.083C802.724 276.666 805.519 274.591 809.529 272.597Z"/>
	<path fill="#E4F5FF" transform="scale(1.01367 1.01367)" d="M489.308 242.656C492.98 242.331 497.02 242.31 500.615 243.192C504.269 244.089 507.633 245.11 510.984 246.876C520.424 251.852 526.836 260.87 529.948 270.888C532.02 270.453 534.138 269.979 536.261 269.932C543.206 269.776 549.89 272.647 554.835 277.459C560.577 283.046 564.007 290.076 563.993 298.216C563.98 305.614 560.618 312.984 555.391 318.158C551.991 321.523 547.439 323.856 542.791 324.913C537.194 326.187 530.824 325.627 525.094 325.624L496.75 325.569L441.937 325.411C436.063 324.697 430.537 321.319 426.907 316.699C422.128 310.617 420.528 303.224 421.574 295.683C422.393 289.774 426.356 284.281 431.096 280.815C438.706 275.251 445.611 275.205 454.493 276.745C455.909 269.968 457.573 263.98 461.75 258.307C468.565 249.049 478.133 244.337 489.308 242.656Z"/>
	<path fill="#025EB9" transform="scale(1.01367 1.01367)" d="M362.393 344.383C363.234 344.27 365.012 343.75 365.698 344.234C367.672 345.629 369.617 350.195 370.879 352.336L387.607 381.565L406.401 414.273C409.68 420.016 413.347 425.801 416.164 431.78C417.111 433.789 417.827 436.034 418.041 438.25C418.658 444.658 417.313 450.778 413.016 455.75C408.172 461.355 401.565 464.334 394.202 464.793C390.652 465.014 387 464.413 383.734 463.006C376.744 459.996 370.326 455.127 363.846 451.164L320.973 425.167C320.964 442.11 322.55 582.449 320.75 585.898L319.964 586.302C319.05 586.778 319.37 586.543 318.852 586.982C317.889 587.663 313.257 587.372 311.86 587.379L285.875 587.448L202.464 587.497C202.474 590.817 203.383 597.709 202.028 600.515L201.935 600.947L197.646 600.606C199.804 596.019 199.197 592.73 198.13 587.958L195.898 583.236L196.474 582.628C198.535 582.242 200.956 582.489 203.071 582.477L214.636 582.124C234.255 580.987 254.069 575.307 270 563.596C283.108 553.961 291.195 539.571 296.267 524.424C296.972 522.317 297.14 521.067 296.867 518.834L299.01 514.944C301.369 510.579 302.547 505.249 303.911 500.494C311.266 474.85 313.809 448.728 314.218 422.158C314.893 418.02 314.436 413.144 314.449 408.93L314.4 378.959C319.048 383.154 324.727 386.389 329.926 389.854L362.943 411.984C361.509 407.267 358.028 402.056 355.779 397.595C349.398 384.937 342.207 371.912 337.199 358.685C339.631 355.634 345.933 353.404 349.473 351.393C354.046 349.602 359.078 348.204 362.393 344.383Z"/>
	<path fill="#03A8FF" transform="scale(1.01367 1.01367)" d="M198.13 587.958L201.5 587.894C202.881 589.986 202.171 597.769 202.028 600.515L201.935 600.947L197.646 600.606C199.804 596.019 199.197 592.73 198.13 587.958Z"/>
	<path fill="#FAB90B" transform="scale(1.01367 1.01367)" d="M197.646 600.606L201.935 600.947C203.302 604.279 202.411 610.943 202.374 614.767L201.935 649.444C201.882 653.848 202.271 658.763 201.603 663.094L200.021 793.044L180.19 793.128C180.18 787.787 180.999 781.292 176.712 777.288C175.63 776.278 174.1 775.481 172.645 775.2C167.897 774.283 161.893 774.942 157.039 774.951L120.529 775.214L120.625 649.36L120.586 649L120.564 634.755C120.575 625.023 120.33 615.958 127.75 608.559C137.622 598.717 153.795 601.18 166.506 601.332C168.852 603.375 170.473 606.448 172.886 608.619C175.5 610.973 180.307 614.478 184 614.008C190.947 613.122 193.363 605.603 197.203 601.112L197.646 600.606Z"/>
	<path fill="#E24F0D" transform="scale(1.01367 1.01367)" d="M121.509 649.905L201.935 649.444C201.882 653.848 202.271 658.763 201.603 663.094C201.206 659.717 201.541 655.978 201.571 652.562L148.43 652.467L131.072 652.429C128.264 652.418 124.89 652.816 122.25 651.831L121.509 649.905Z"/>
	<path fill="#E24F0D" transform="scale(1.01367 1.01367)" d="M141.319 720.75C145.782 719.822 150.877 720.267 155.421 720.265L176.388 720.346C179.398 720.429 181.194 720.543 183.288 722.953C184.74 724.624 184.761 726.893 184.539 729C184.261 731.641 182.69 732.859 180.728 734.356C175.785 735.29 170.471 734.878 165.456 734.85L144.759 734.6C142.614 734.488 141.153 734.203 139.761 732.438C138.218 730.483 137.506 727.07 138.138 724.661C138.692 722.545 139.453 721.815 141.319 720.75Z"/>
	<path fill="#E24F0D" transform="scale(1.01367 1.01367)" d="M142.126 674.75C146.068 673.696 175.943 673.958 179.891 674.96C181.628 675.401 183.171 676.546 184.024 678.131C185.215 680.344 185.087 682.725 184.281 685.034C183.529 687.188 182.248 687.954 180.323 688.95L144.012 689.091C141.695 688.819 140.091 688.307 138.646 686.375C137.343 684.633 137.269 682.325 137.68 680.25C138.179 677.724 140.022 676.014 142.126 674.75Z"/>
	<path fill="#E24F0D" transform="scale(1.01367 1.01367)" d="M142.468 697.25C149.573 696.264 157.833 697.159 165.035 697.258C169.8 697.324 175.505 696.772 180.163 697.577C181.556 697.818 183.233 699.124 183.884 700.38C184.869 702.281 185.026 706.07 184.289 708.07C183.537 710.108 182.346 711.049 180.481 712.022C173.316 712.731 165.616 712.103 158.386 712.09C153.462 712.082 146.377 712.98 141.89 711.312C140.197 710.683 138.923 709.487 138.3 707.768C137.602 705.84 137.683 702.101 138.683 700.274C139.573 698.646 140.745 697.803 142.468 697.25Z"/>
	<path fill="#022397" transform="scale(1.01367 1.01367)" d="M693.766 753.125C697.324 749.407 700.846 745.592 704.883 742.384C718.978 731.181 736.982 724.467 755 724.083C775.319 723.649 796.393 730.808 811.012 745.25C818.964 753.105 823.936 761.473 828.64 771.479C833.105 770.56 838.263 771.125 842.826 771.201C843.428 773.336 842.571 775.905 843.161 777.89L843.078 808.311L833.499 808.099L814.603 807.983C812.698 824.916 805.507 837.068 792.916 848.188C784.736 854.244 776.348 858.798 766.25 860.647L763.538 861.123C746.09 863.557 730.828 858.556 716.891 848.337C703.642 836.305 698.261 824.433 695.919 806.909L672.434 807.003C672.44 800.847 673.479 793.43 675.245 787.544C679.199 773.934 684.717 764.05 693.766 753.125Z"/>
	<path fill="#03A8FF" transform="scale(1.01367 1.01367)" d="M751.246 769.636C759.397 768.798 768.459 770.234 775.5 774.587C783.674 779.642 788.497 787.285 790.674 796.476C792.933 806.01 791.338 815.93 786.11 824.213C780.469 833.151 770.905 837.675 760.926 839.886C756.47 840.339 751.722 840.506 747.36 839.338L746.5 839.097C742.684 838.069 739.041 836.692 735.75 834.459C728.119 829.279 722.394 820.594 720.799 811.501C719.197 802.37 720.883 792.212 726.321 784.617C732.384 776.149 741.108 771.407 751.246 769.636Z"/>
	<path fill="#E4F5FF" transform="scale(1.01367 1.01367)" d="M752.862 786.635C757.216 786.399 760.758 786.684 764.75 788.579C769.422 790.798 773.679 795.069 775.278 800.073C776.907 805.175 776.47 810.798 773.812 815.501C770.634 821.127 765.697 823.714 759.722 825.343C755.458 825.604 751.378 825.282 747.484 823.316C742.364 820.731 738.264 815.491 736.75 809.976C735.628 805.889 736.36 800.588 738.496 796.936C741.861 791.18 746.565 788.272 752.862 786.635Z"/>
	<path fill="#E4F5FF" transform="scale(1.01367 1.01367)" d="M693.766 753.125C697.324 749.407 700.846 745.592 704.883 742.384C718.978 731.181 736.982 724.467 755 724.083C775.319 723.649 796.393 730.808 811.012 745.25C818.964 753.105 823.936 761.473 828.64 771.479C833.105 770.56 838.263 771.125 842.826 771.201C843.428 773.336 842.571 775.905 843.161 777.89L843.078 808.311L833.499 808.099L814.603 807.983L814.67 806.412C814.969 789.907 809.72 774.384 798.14 762.362C786.595 750.376 772.441 745.222 756.021 745.051C739.411 744.877 724.148 751.939 712.493 763.583C700.64 775.426 695.978 790.486 695.919 806.909L672.434 807.003C672.44 800.847 673.479 793.43 675.245 787.544C679.199 773.934 684.717 764.05 693.766 753.125Z"/>
	<path fill="#E24F0D" transform="scale(1.01367 1.01367)" d="M828.64 771.479C833.105 770.56 838.263 771.125 842.826 771.201C843.428 773.336 842.571 775.905 843.161 777.89L843.078 808.311L833.499 808.099C835.59 795.884 832.496 783.001 828.64 771.479Z"/>
	<path fill="#E4F5FF" transform="scale(1.01367 1.01367)" d="M644.22 108.213C648.748 107.926 654.086 108.172 658.507 109.213C667.105 111.237 674.933 114.134 682.25 119.219C695.774 128.617 703.77 142.35 706.643 158.374L709.413 157.808C711.745 157.325 713.917 156.962 716.311 156.927C728.255 156.751 738.783 160.983 747.366 169.355C755.563 177.35 760.089 188.552 760.123 199.958C760.158 212.04 755.849 222.923 747.295 231.474C741.6 237.167 734.63 241.347 726.775 243.276C717.063 245.662 705.516 244.47 695.548 244.446L650.75 244.326L599.067 244.212C588.477 244.184 576.205 245.367 565.881 242.925C554.743 240.29 545.314 232.61 539.441 222.928C533.759 213.562 531.983 202.156 534.492 191.5C535.522 187.127 537.3 183.106 539.677 179.295C545.44 170.053 554.956 163.042 565.579 160.603L566.5 160.398C572.964 158.923 578.864 159.517 585.305 160.765C587.447 149.166 591.636 139.189 599.528 130.25C611.2 117.03 626.604 109.239 644.22 108.213Z"/>
	<path fill="#444545" transform="scale(1.01367 1.01367)" d="M285.875 587.448L311.86 587.379C313.257 587.372 317.889 587.663 318.852 586.982L318.938 592.585L319.018 649.994L319.017 652.364L319.121 751.931L319.186 779.9C319.19 784.397 318.734 789.248 319.38 793.687C319.445 797.42 319.806 801.393 319.495 805.1L319.564 845.218L319.617 853.435C316.952 853.384 312.473 853.908 310.038 853.173C306.437 852.33 301.489 852.889 297.75 852.834C293.147 852.767 286.052 851.668 281.73 852.967C280.415 852.399 278.736 852.667 277.33 852.692L265.496 852.917L265.673 805.087L265.706 793.085L252.532 792.959L251.993 804.984L250.004 852.86L237.995 852.754L209.988 852.727L199.132 852.507L199.969 805.409L183.971 805.123L176.417 804.85L176.928 804.369C180.634 800.797 180.119 798 180.19 793.128L200.021 793.044L201.603 663.094C202.271 658.763 201.882 653.848 201.935 649.444L202.374 614.767C202.411 610.943 203.302 604.279 201.935 600.947L202.028 600.515C203.383 597.709 202.474 590.817 202.464 587.497L285.875 587.448Z"/>
	<path fill="#D83B3D" transform="scale(1.01367 1.01367)" d="M180.19 793.128L200.021 793.044L199.969 805.019C194.791 805.021 189.092 804.591 183.971 805.123L176.417 804.85L176.928 804.369C180.634 800.797 180.119 798 180.19 793.128Z"/>
	<path fill="#FAB90B" transform="scale(1.01367 1.01367)" d="M257.79 650.085L259.423 609.066C260.998 607.936 263.656 607.63 265.554 607.15L265.601 649.67L265.403 650.418L265.706 793.085L252.532 792.959L257.79 650.085Z"/>
	<path fill="#2D2023" transform="scale(1.01367 1.01367)" d="M285.875 587.448L311.86 587.379C313.257 587.372 317.889 587.663 318.852 586.982L318.938 592.585L319.018 649.994L319.017 652.364L319.121 751.931L319.186 779.9C319.19 784.397 318.734 789.248 319.38 793.687C319.445 797.42 319.806 801.393 319.495 805.1L319.564 845.218L319.617 853.435C316.952 853.384 312.473 853.908 310.038 853.173C306.437 852.33 301.489 852.889 297.75 852.834C293.147 852.767 286.052 851.668 281.73 852.967C280.415 852.399 278.736 852.667 277.33 852.692L265.496 852.917L265.673 805.087L265.706 793.085L265.403 650.418L265.601 649.67C266.545 646.416 265.993 642.002 265.998 638.61L265.958 612.797C265.949 611.727 265.528 607.505 265.888 606.769C266.248 606.032 273.972 602.947 275.25 601.955C279.935 598.317 283.095 592.592 285.875 587.448Z"/>
	<path fill="#FAB90B" transform="scale(1.01367 1.01367)" d="M319.018 649.994L500 649.938L500.838 649.055L500.633 662.207L500.505 788.441L479.961 788.508C476.831 788.515 472.68 788.012 469.691 788.923C470.706 795.256 470.982 801.546 470.813 807.953L451.529 808.13C449.138 824.975 441.517 837.881 428.136 848.408C421.585 852.546 415.546 855.508 407.913 857.307C390.525 861.405 374.801 857.107 359.974 847.876L358.951 847.087C344.418 835.627 338.896 823.348 336.72 805.232L322.937 805.001L319.495 805.1C319.806 801.393 319.445 797.42 319.38 793.687C318.734 789.248 319.19 784.397 319.186 779.9L319.121 751.931L319.017 652.364L319.018 649.994Z"/>
	<path fill="#E24F0D" transform="scale(1.01367 1.01367)" d="M319.018 649.994L500 649.938L500.838 649.055L500.633 662.207C500.271 659.055 500.512 655.644 500.511 652.461L319.017 652.364L319.018 649.994Z"/>
	<path fill="#F49232" transform="scale(1.01367 1.01367)" d="M436.407 663.622L454.829 663.574C458.833 663.594 463.207 663.325 467.132 664.181C468.863 664.559 470.596 665.707 471.413 667.323C472.882 670.232 472.769 676.878 471.75 679.975C470.766 682.967 468.245 684.49 465.593 685.834C459.656 686.376 453.516 686.11 447.555 686.105C444.222 686.102 439.964 686.528 436.752 685.72L436.25 685.579L435.234 685.27C432.836 684.336 431.136 681.898 430.246 679.582C429.04 676.442 429.15 670.968 430.675 668C431.924 665.57 433.866 664.363 436.407 663.622Z"/>
	<path fill="#E4F5FF" transform="scale(1.01367 1.01367)" d="M320.462 793.355L320.34 793.007C320.15 791.225 320.906 788.577 321.196 786.789C322.912 776.194 325.612 767.623 331.438 758.5C341.966 742.014 358.288 731.078 377.312 727.02C397.729 722.665 418.485 726.926 435.923 738.265C454.099 750.084 465.208 767.973 469.691 788.923C470.706 795.256 470.982 801.546 470.813 807.953L451.529 808.13L451.534 803.504C451.304 788.601 444.473 773.279 433.75 762.965C422.962 752.589 406.727 746.212 391.75 746.55C376.289 746.899 361.556 753.549 350.948 764.71C340.618 775.579 336.397 790.492 336.72 805.232L322.937 805.001L319.495 805.1C319.806 801.393 319.445 797.42 319.38 793.687L320.462 793.355Z"/>
	<path fill="#D83B3D" transform="scale(1.01367 1.01367)" d="M319.38 793.687L320.462 793.355L322.562 793.75C323.268 797.221 322.899 801.431 322.937 805.001L319.495 805.1C319.806 801.393 319.445 797.42 319.38 793.687Z"/>
	<path fill="#022397" transform="scale(1.01367 1.01367)" d="M336.72 805.232C336.397 790.492 340.618 775.579 350.948 764.71C361.556 753.549 376.289 746.899 391.75 746.55C406.727 746.212 422.962 752.589 433.75 762.965C444.473 773.279 451.304 788.601 451.534 803.504L451.529 808.13C449.138 824.975 441.517 837.881 428.136 848.408C421.585 852.546 415.546 855.508 407.913 857.307C390.525 861.405 374.801 857.107 359.974 847.876L358.951 847.087C344.418 835.627 338.896 823.348 336.72 805.232Z"/>
	<path fill="#03A8FF" transform="scale(1.01367 1.01367)" d="M393.87 767.201C403.753 767.7 411.673 770.393 419.317 776.826C426.337 782.734 430.376 792.111 431.124 801.148C431.887 810.361 429.334 819.668 423.308 826.75C416.306 834.978 407.863 839.724 397.053 840.61C393.519 840.583 389.768 840.72 386.33 839.827L385.5 839.598C380.307 838.219 375.665 835.97 371.5 832.559C364.201 826.581 359.352 817.676 358.497 808.27C357.584 798.233 360.232 788.055 366.766 780.272C373.885 771.793 383.079 768.055 393.87 767.201Z"/>
	<path fill="#E4F5FF" transform="scale(1.01367 1.01367)" d="M389.841 783.596C394.59 783.134 399.083 783.408 403.375 785.676C408.827 788.557 412.779 793.681 414.448 799.582C415.833 804.477 415.022 810.214 412.437 814.58C408.905 820.544 403.714 823.83 397.125 825.426C392.755 825.748 388.319 825.693 384.25 823.865C379.051 821.528 375.103 816.845 373.234 811.509C371.394 806.258 372.01 799.796 374.552 794.882C377.75 788.699 383.452 785.515 389.841 783.596Z"/>
	<path fill="#FAB90B" transform="scale(1.01367 1.01367)" d="M635.808 407.111L632.533 406.879C630.969 404.291 632.156 393.379 632.973 390.254C633.521 388.159 634.494 385.688 636.529 384.624C639.079 383.292 643.728 383.567 646.557 383.541C654.342 383.469 662.914 382.757 670.339 385.44C674.494 386.941 677.795 389.169 679.717 393.266L720.552 501.742C715.325 502.139 709.933 501.857 704.684 501.848C701.854 501.843 698.954 501.614 696.206 502.392L694.596 502.533L671.676 502.773L671.977 502.243L671.75 501.755L668.247 501.875L669.324 500.875L668.12 500.471L646.093 500.483L636.769 500.525L636.002 500.391L566.064 500.385L547 500.531C543.372 500.573 539.453 500.395 535.878 500.928C530.808 500.888 526.067 500.759 521.271 502.626C520.232 502.619 519.844 502.36 518.936 501.9C514.539 504.276 507.054 506.916 504.866 511.655C503.97 512.918 503.171 514.319 502.977 515.882C502.055 523.309 502.828 531.706 502.789 539.262L502.499 594.584C502.484 595.841 502.647 601.051 501.427 601.46C500.694 607.065 501.022 613.003 500.995 618.667L500.838 649.055L500 649.938L319.018 649.994L318.938 592.585C323.275 591.063 327.074 588.698 331.053 586.428L347.603 577.088L411.23 541.738L544.216 468.581L581.576 448.35L635.785 419.369L635.808 407.111Z"/>
	<path fill="#030607" transform="scale(1.01367 1.01367)" d="M647.979 406.962C647.291 404.763 646.84 402.363 648.103 400.25C648.984 398.777 650.535 397.335 652.275 397.068C653.735 396.843 655.17 397.29 656.352 398.158C657.781 399.207 658.945 401.159 659.114 402.925C659.288 404.758 658.827 406.392 657.601 407.776C656.34 409.199 654.708 410.024 652.792 410.016L652.119 409.96C650.385 409.207 649.332 408.267 647.979 406.962Z"/>
	<path fill="#F8D18E" transform="scale(1.01367 1.01367)" d="M635.808 407.111L647.979 406.962C649.332 408.267 650.385 409.207 652.119 409.96C651.91 410.469 651.783 411.019 651.493 411.487C650.623 412.889 646.625 414.184 645.079 414.853C642.088 416.148 639.286 417.943 636.285 419.189L635.785 419.369L635.808 407.111Z"/>
	<path fill="#03A8FF" transform="scale(1.01367 1.01367)" d="M645.976 427.67L655.271 421.876L668.12 500.471L646.093 500.483L636.769 500.525L636.002 500.391L636.032 433.078L645.976 427.67Z"/>
	<path fill="#E4F5FF" transform="scale(1.01367 1.01367)" d="M636.032 433.078L645.976 427.67L646.093 500.483L636.769 500.525L636.002 500.391L636.032 433.078Z"/>
	<path fill="#03A8FF" transform="scale(1.01367 1.01367)" d="M636.032 433.078L636.002 500.391L566.064 500.385L547 500.531C543.372 500.573 539.453 500.395 535.878 500.928C530.808 500.888 526.067 500.759 521.271 502.626C520.232 502.619 519.844 502.36 518.936 501.9L636.032 433.078Z"/>
	<path fill="#03A8FF" transform="scale(1.01367 1.01367)" d="M501.427 601.46C495.356 600.846 488.72 601.454 482.585 601.459L441.338 601.48L384.661 601.506C372.644 601.511 360.506 601.161 348.52 602.03C354.386 597.488 361.674 594.032 368.103 590.307L416.855 562.609L476.99 527.696C486.138 522.384 495.268 515.999 504.866 511.655C503.97 512.918 503.171 514.319 502.977 515.882C502.055 523.309 502.828 531.706 502.789 539.262L502.499 594.584C502.484 595.841 502.647 601.051 501.427 601.46Z"/>
	<path fill="#FAB90B" transform="scale(1.01367 1.01367)" d="M696.206 502.392L737.691 502.843C743.154 502.977 748.587 503.005 754 503.822L754.814 503.934C765.499 505.499 775.756 512.66 781.99 521.282C783.681 523.621 785.243 526.119 786.44 528.75L790.045 537.355C790.351 538.087 790.769 539.66 791.292 540.129C792.523 540.529 792.633 540.736 793.468 541.75L793.431 542.986L794.227 543.219L794.683 542.969L825.379 613.356L830.367 624.486C830.738 625.315 831.798 627.044 831.744 627.923C832.261 628.896 834.042 633.377 834.576 633.768C835.549 634.479 837.723 635.033 838.893 635.522L847.473 639.384L871.278 650.383C878.561 653.634 886.185 656.635 892.848 661.053C903.501 668.117 910.911 680.008 913.423 692.492C915.52 702.907 914.266 714.909 914.18 725.567L914.048 771.926L843.298 771.42L843.161 777.89C842.571 775.905 843.428 773.336 842.826 771.201C838.263 771.125 833.105 770.56 828.64 771.479C823.936 761.473 818.964 753.105 811.012 745.25C796.393 730.808 775.319 723.649 755 724.083C736.982 724.467 718.978 731.181 704.883 742.384C700.846 745.592 697.324 749.407 693.766 753.125L694.404 585.196L694.596 502.533L696.206 502.392Z"/>
	<path fill="#E4F5FF" transform="scale(1.01367 1.01367)" d="M878.758 699.164C884.032 699.128 888.777 700.599 893.194 703.447C899.374 707.43 903.225 713.015 904.592 720.234C905.778 726.498 904.236 733.029 900.597 738.238C895.983 744.842 890.174 748.125 882.31 749.453C875.981 749.524 870.253 748.717 865.01 744.825C859.92 741.048 856.504 734.375 855.592 728.203C854.559 721.219 856.084 714.318 860.483 708.73C865.095 702.873 871.482 700.014 878.758 699.164Z"/>
	<path fill="#9DD9EF" transform="scale(1.01367 1.01367)" d="M878.054 706.078C880.801 705.91 883.469 706.378 886 707.477C890.903 709.606 895.045 713.552 896.905 718.611L897.179 719.385L897.656 720.732C898.85 724.768 897.928 729.2 895.859 732.75C892.782 738.028 887.693 741.08 881.895 742.508C878.006 742.594 874.78 742.385 871.277 740.423C866.957 738.003 863.349 733.065 862.228 728.286C861.128 723.591 861.937 718.8 864.581 714.75C867.717 709.947 872.562 707.257 878.054 706.078Z"/>
	<path fill="#E4F5FF" transform="scale(1.01367 1.01367)" d="M696.206 502.392L737.691 502.843C743.154 502.977 748.587 503.005 754 503.822L754.814 503.934C765.499 505.499 775.756 512.66 781.99 521.282C783.681 523.621 785.243 526.119 786.44 528.75L790.045 537.355C790.351 538.087 790.769 539.66 791.292 540.129L825.617 620.647C826.715 623.843 828.202 627.045 828.957 630.331L775.27 630.504L755.498 630.491L747.979 630.479C741.927 630.494 735.272 630.981 729.294 630.169L728.5 630.051C721.136 628.996 716.629 626.5 711.004 621.861C708.023 618.829 705.994 615.523 704.028 611.778C699.532 603.534 696.997 594.167 694.404 585.196L694.596 502.533L696.206 502.392Z"/>
	<path fill="#9DD9EF" transform="scale(1.01367 1.01367)" d="M711.004 621.861L750.757 545.286L765.061 594.365L771.875 619C772.966 622.785 773.767 626.869 775.27 630.504L755.498 630.491L747.979 630.479C741.927 630.494 735.272 630.981 729.294 630.169L728.5 630.051C721.136 628.996 716.629 626.5 711.004 621.861Z"/>
	<path fill="#E4F5FF" transform="scale(1.01367 1.01367)" d="M747.979 630.479L748.678 581.313C748.904 572.919 748.815 563.918 750.091 555.634C754.256 579.918 755.729 605.877 755.498 630.491L747.979 630.479Z"/>
	<path fill="#9DD9EF" transform="scale(1.01367 1.01367)" d="M696.206 502.392L737.691 502.843L743.015 519.973C743.79 522.361 745.211 525.157 745.699 527.563C746.068 529.383 736.444 547.671 734.779 550.999L712.188 595.095C709.461 600.446 707.435 606.921 704.028 611.778C699.532 603.534 696.997 594.167 694.404 585.196L694.596 502.533L696.206 502.392Z"/>
	<path fill="#025EB9" transform="scale(1.01367 1.01367)" d="M535.878 500.928C539.453 500.395 543.372 500.573 547 500.531L566.064 500.385L636.002 500.391L636.769 500.525L646.093 500.483L668.12 500.471L669.324 500.875L668.247 501.875L671.75 501.755L671.977 502.243L671.676 502.773L694.596 502.533L694.404 585.196L693.766 753.125C684.717 764.05 679.199 773.934 675.245 787.544L500.505 788.441L500.633 662.207L500.838 649.055L500.995 618.667C501.022 613.003 500.694 607.065 501.427 601.46C502.647 601.051 502.484 595.841 502.499 594.584L502.789 539.262C502.828 531.706 502.055 523.309 502.977 515.882C503.171 514.319 503.97 512.918 504.866 511.655C507.054 506.916 514.539 504.276 518.936 501.9C519.844 502.36 520.232 502.619 521.271 502.626C526.067 500.759 530.808 500.888 535.878 500.928Z"/>
	<path fill="#E4F5FF" transform="scale(1.01367 1.01367)" d="M535.918 664.833C540.755 664.83 563.031 663.693 565.818 666.184C566.955 667.2 567.164 668.039 567.295 669.5C566.711 671.119 566.64 671.446 565.25 672.574C563.795 672.865 562.582 672.998 561.098 672.918C554.827 672.528 548.431 672.777 542.143 672.74C540.716 672.731 537.249 673.022 536 672.491C535.515 672.284 535.167 671.845 534.75 671.522C534.314 669.434 534.416 667.651 534.629 665.538L535.918 664.833Z"/>
	<defs>
		<linearGradient id="gradient_0" gradientUnits="userSpaceOnUse" x1="529" y1="501.5" x2="671.5" y2="501.5">
			<stop offset="0" stop-color="#F9AC00"/>
			<stop offset="1" stop-color="#F2C001"/>
		</linearGradient>
	</defs>
	<path fill="url(#gradient_0)" transform="scale(1.01367 1.01367)" d="M535.878 500.928C539.453 500.395 543.372 500.573 547 500.531L566.064 500.385L636.002 500.391L636.769 500.525L646.093 500.483L668.12 500.471L669.324 500.875L668.247 501.875L671.75 501.755L671.977 502.243L671.676 502.773L647.54 502.824L529.634 502.786C526.801 502.891 524.092 502.984 521.271 502.626C526.067 500.759 530.808 500.888 535.878 500.928Z"/>
	<path fill="#FAB90B" transform="scale(1.01367 1.01367)" d="M521.271 502.626C526.067 500.759 530.808 500.888 535.878 500.928L544 501.75L543.75 502.255L530.071 502.305L529.634 502.786C526.801 502.891 524.092 502.984 521.271 502.626Z"/>
	<path fill="#022397" transform="scale(1.01367 1.01367)" d="M561.098 672.918C561.027 674.898 560.274 676.654 559.064 678.225C557.968 679.646 557.028 681.286 555.156 681.419C552.429 681.613 549.55 681.454 546.806 681.456C542.429 681.46 535.119 682.438 531.75 679.294C530.286 677.928 529.848 676.65 529.786 674.685C529.619 669.353 528.057 660.143 532.179 656.087C536.27 652.062 547.353 653.34 552.753 653.66C555.472 653.821 557.255 654.463 559.045 656.534L559.43 657C561.112 659.002 560.578 661.999 560.493 664.47L544.394 664.42C541.681 664.418 538.526 664.078 535.918 664.833L534.629 665.538C534.416 667.651 534.314 669.434 534.75 671.522C535.167 671.845 535.515 672.284 536 672.491C537.249 673.022 540.716 672.731 542.143 672.74C548.431 672.777 554.827 672.528 561.098 672.918Z"/>
	<path fill="#9DD9EF" transform="scale(1.01367 1.01367)" d="M634.278 526.913L656.733 526.949C659.42 526.959 663.051 526.513 665.651 527.11C666.827 527.38 667.761 527.793 668.615 528.666C669.766 529.843 670.37 531.107 670.477 532.75C670.83 538.15 670.494 543.788 670.465 549.206L670.396 579.228L670.353 611.126C670.345 616.681 670.679 622.469 670.287 628C670.184 629.463 669.635 630.995 668.489 631.974C667.409 632.896 666.342 633.246 664.938 633.363C660.354 633.748 655.524 633.419 650.909 633.415L623.415 633.368L596.735 633.299C592.242 633.29 587.508 633.621 583.054 633.25C582.632 633.214 582.423 633.135 582.049 633.022C583.914 626.767 587.932 620.237 590.895 614.408L605.269 585.758L634.278 526.913Z"/>
	<path fill="#9DD9EF" transform="scale(1.01367 1.01367)" d="M602.744 526.943L626.182 526.902L634.278 526.913L605.269 585.758L590.895 614.408C587.932 620.237 583.914 626.767 582.049 633.022C580.22 634.017 552.966 633.468 549.346 633.052L549.156 633.071C547.16 633.674 544.787 633.417 542.704 633.423L530.281 633.293C528.046 633.297 523.97 633.848 522.022 633.06L521.995 565.649C521.994 555.029 521.184 543.704 522.092 533.15C522.218 531.688 522.54 529.746 523.569 528.601C524.238 527.857 524.984 527.191 526 527.034C531.252 526.224 537.657 526.915 543.008 526.917L583.251 526.959L602.744 526.943Z"/>
	<path fill="#E4F5FF" transform="scale(1.01367 1.01367)" d="M583.251 526.959L602.744 526.943C596.957 536.358 592.333 547.09 587.429 557L561.631 609.134L553.537 624.636C552.154 627.209 550.136 630.252 549.346 633.052L549.156 633.071C543.656 632.263 537.032 632.929 531.413 632.93C537.401 616.613 546.237 600.858 554.195 585.415L583.251 526.959Z"/>
	<path fill="#9DD9EF" transform="scale(1.01367 1.01367)" d="M602.744 526.943L626.182 526.902L634.278 526.913L605.269 585.758L590.895 614.408C587.932 620.237 583.914 626.767 582.049 633.022C580.22 634.017 552.966 633.468 549.346 633.052C550.136 630.252 552.154 627.209 553.537 624.636L561.631 609.134L587.429 557C592.333 547.09 596.957 536.358 602.744 526.943Z"/>
	<path fill="#E4F5FF" transform="scale(1.01367 1.01367)" d="M626.182 526.902L634.278 526.913L605.269 585.758L590.895 614.408C587.932 620.237 583.914 626.767 582.049 633.022L573.603 632.95L626.182 526.902Z"/>
</svg>
