<?xml version="1.0" encoding="utf-8" ?>
<svg xmlns="http://www.w3.org/2000/svg" xmlns:xlink="http://www.w3.org/1999/xlink" width="1024" height="1024">
	<path transform="scale(1.6 1.6)" d="M450.328 301.346C460.018 300.394 461.746 311.008 461.825 318.359L463.514 366.317C463.931 374.416 474.637 374.199 477.53 388.097L477.629 388.594C480.612 402.824 471.55 417.73 457.108 420.908L456.562 421.025C454.691 421.446 452.921 421.571 451.012 421.657C449.828 421.997 447.337 421.547 446.09 421.333L445.625 421.251C423.618 417.586 415.806 389.075 432.891 373.521C433.83 372.667 437.039 370.508 437.481 369.43C438.398 367.195 437.962 356.63 437.979 353.86L439.222 324.418C439.603 314.239 436.66 304.008 450.328 301.346Z"/>
	<path transform="scale(1.6 1.6)" d="M168.333 177.844L168.295 155.442C168.292 151.281 167.677 145.868 168.775 141.875C173.816 123.534 186.383 122.551 202.803 122.54L243.558 122.536C247.29 122.538 251.129 122.359 254.844 122.708L255.358 122.753C265.57 123.705 271.923 131.731 274.91 140.749C276.908 146.781 274.981 171.905 275.843 180.676L275.616 181.798C273.836 182.517 175.567 183.641 168.407 181.623L168.333 177.844Z"/>
	<path transform="scale(1.6 1.6)" d="M416.327 304.461C427.075 303.063 435.252 320.102 419.375 326.235L412.755 329.122C340.818 363.975 350.438 469.418 426.406 490.525C464.539 501.12 501.604 486.067 523.594 453.247C552.753 409.724 532.807 349.633 485.816 329.127C480.552 326.83 473.568 324.682 472.444 318.158L472.365 317.656C471.182 310.537 478.669 303.553 485.703 305.137L486.25 305.267C495.344 307.291 505.049 313.352 512.756 318.281L513.805 319.011C533.878 333.191 548.831 354.969 555.345 378.638C581.702 474.404 474.006 554.433 388.911 497.437C319.989 451.275 327.067 342.737 404.332 308.676C408.272 306.94 412.059 305.244 416.327 304.461Z"/>
	<path fill="#038DFF" transform="scale(1.6 1.6)" d="M275.974 180.93C277.06 181.191 279.028 181.037 280.281 181.209C292.371 182.874 298.548 196.932 298.718 208.139L298.626 454.788C298.095 468.261 286.8 477.316 274.382 479.509C270.115 480.262 265.261 479.842 260.914 479.846L167.56 479.796C155.662 479.199 144.778 468.17 143.483 456.436C142.979 451.871 143.211 447.085 143.205 442.496L143.18 221.515C143.163 205.275 142.246 186.476 162.956 181.526C164.292 181.207 167.327 181.53 168.193 180.781L168.333 177.665L168.407 181.623C175.567 183.641 273.836 182.517 275.616 181.798L275.974 180.93ZM226.6 282.656C221.756 284.646 214.255 300.402 211.461 304.955L199.37 324.688C194.654 332.427 184.522 345.697 198.166 351.072L200.14 351.741C203.294 352.814 214.437 351.571 215.602 352.462C215.536 359.394 214.765 366.443 213.984 373.336L212.501 387.72C212.252 392.384 211.354 395.819 217.344 396.515C221.458 395.957 224.664 388.201 226.656 385.075L241.406 361.158C246.611 352.702 262.169 336.554 249.848 328.123C243.656 323.885 236.544 325.489 229.524 324.825C228.49 316.95 228.724 306.819 229.356 298.915C229.695 294.667 233.745 282.844 226.6 282.656Z"/>
</svg>
