<?xml version="1.0" encoding="utf-8" ?>
<svg xmlns="http://www.w3.org/2000/svg" xmlns:xlink="http://www.w3.org/1999/xlink" width="1024" height="1024">
	<path fill="#294151" transform="scale(1.6 1.6)" d="M73.707 382.616L121.969 382.657L121.237 400.018C120.905 398.524 120.943 396.944 120.889 395.418L101.169 395.434C87.1992 395.445 80.2007 396.918 73.707 382.616Z"/>
	<path fill="#294151" transform="scale(1.6 1.6)" d="M501.645 382.75L565.186 382.766L565.226 383.098C565.845 386.962 567.452 394.29 561.562 395.224L561.167 395.29C556.509 395.97 551.107 395.442 546.343 395.445L518.836 395.459C513.557 395.462 508.184 395.257 502.918 395.623L502.572 398.341C502.411 393.296 502.547 387.712 501.645 382.75Z"/>
	<path fill="#294151" transform="scale(1.6 1.6)" d="M176.178 279.299L176.644 279.076C179.708 277.592 182.56 275.686 185.458 273.907L204.306 262.36C227.464 249.211 253.57 235.686 279 227.228C349.37 203.824 376.951 234.751 432.334 269.013L438.952 272.79C441.67 274.175 451.698 278.11 452.725 280.31L452.846 280.659C449.686 285.677 434.4 283.414 429.401 282.624L428.906 282.543C425.78 282.05 423.982 280.146 421.375 278.554C412.903 271.847 403.175 266.322 393.98 260.64C369.954 245.794 345.955 230.373 316.211 233.851C282.77 237.762 253.353 252.277 223.991 267.804C216.73 271.644 209.171 275.105 202.107 279.273L194.797 282.093C189.617 283.465 180.826 282.08 176.178 279.299Z"/>
	<path transform="scale(1.6 1.6)" d="M383.286 382.461C385.136 369.183 394.718 355.132 405.269 347.142C442.456 318.981 490.149 338.942 501.588 382.75C502.547 387.712 502.411 393.296 502.535 398.341C499.199 450.25 436.433 473.265 400.261 436.987C389.631 426.326 382.421 410.703 382.477 395.548L383.286 382.461ZM441.459 374.79C431.574 376.147 423.389 382.738 424.844 393.552L425.282 395.914C426.97 404.864 434.559 409.142 443.073 409.066C464.621 405.766 463.578 377.665 445.938 374.998L445.446 374.92C444.076 374.715 442.839 374.716 441.459 374.79Z"/>
	<path transform="scale(1.6 1.6)" d="M121.898 382.597C127.849 346.782 169.43 325.913 202.807 337.446C223.089 344.454 238.453 362.448 243.456 383.114L244.427 395.857C244.984 409.724 237.25 425.369 227.92 435.239C201.447 463.243 154.493 460.776 132.047 428.799C126.5 420.896 121.062 410.013 121.237 400.018L121.898 382.597ZM180.414 376.001C155.866 382.087 165.16 414.366 186.415 409.201C209.257 403.116 203.35 373.252 180.414 376.001Z"/>
	<path fill="#038DFF" transform="scale(1.6 1.6)" d="M421.375 278.693C423.982 280.146 425.78 282.05 428.906 282.543L429.401 282.624C434.4 283.414 449.686 285.677 452.846 280.659L453.361 280.686C454.736 280.864 456.286 280.454 457.693 280.415L493.616 280.309C497.06 280.311 501.306 279.841 504.669 280.499C526.265 284.721 555.774 328.646 561.228 348.75C563.841 358.38 566.433 372.825 565.215 382.839L501.588 382.722C490.149 338.942 442.456 318.981 405.269 347.142C394.718 355.132 385.136 369.183 383.286 382.461L382.552 395.548L248.592 395.473C247.361 395.476 245.791 395.373 244.608 395.679L243.528 383.114C238.453 362.448 223.089 344.454 202.807 337.446C169.43 325.913 127.849 346.782 121.969 382.597L73.707 382.645L73.4427 381.995C70.7487 374.32 70.8037 343.438 72.2228 334.615C76.149 310.207 104.969 284.345 129.357 280.61C133.211 280.02 137.536 280.346 141.446 280.333L163.75 280.273C167.127 280.265 172.509 280.872 175.628 279.556L176.178 279.299C180.826 282.08 189.617 283.465 194.797 282.093L202.107 279.273C204.581 279.702 207.265 279.539 209.767 279.547L402.567 279.514C405.871 279.481 409.047 278.97 412.316 278.807L421.375 278.693Z"/>
	<path fill="#294151" transform="scale(1.6 1.6)" d="M243.528 383.114L383.286 382.623L382.552 395.548L248.592 395.473C247.361 395.476 245.791 395.373 244.608 395.679L243.528 383.114Z"/>
</svg>
