<?xml version="1.0" encoding="UTF-8" standalone="no"?>
<!DOCTYPE svg PUBLIC "-//W3C//DTD SVG 1.1//EN" "http://www.w3.org/Graphics/SVG/1.1/DTD/svg11.dtd">
<svg xmlns="http://www.w3.org/2000/svg" version="1.1" viewBox="0.00 0.00 600.00 568.00">
<g stroke-width="2.00" fill="none" stroke-linecap="butt">
<path stroke="#024780" vector-effect="non-scaling-stroke" d="
  M 302.28 100.38
  L 297.54 92.16"
/>
<path stroke="#024780" vector-effect="non-scaling-stroke" d="
  M 161.99 215.53
  L 158.02 217.11"
/>
<path stroke="#024780" vector-effect="non-scaling-stroke" d="
  M 162.98 225.79
  L 166.96 224.23"
/>
<path stroke="#024780" vector-effect="non-scaling-stroke" d="
  M 300.14 101.80
  L 295.37 93.53"
/>
</g>
<path fill="#038dff" d="
  M 399.97 0.00
  L 401.97 0.00
  Q 408.93 2.58 404.83 7.83
  Q 398.04 16.53 385.74 29.30
  C 369.84 45.78 353.42 61.30 335.92 75.69
  C 324.72 84.90 315.69 91.64 302.28 100.38
  L 297.54 92.16
  Q 311.33 82.96 320.47 75.92
  Q 347.70 54.94 372.92 29.25
  Q 376.76 25.34 386.32 14.52
  Q 393.04 6.92 399.97 0.00
  Z"
/>
<path fill="#000000" d="
  M 161.99 215.53
  L 158.02 217.11
  L 60.77 47.98
  Q 60.64 47.76 60.87 47.63
  L 64.20 45.78
  Q 64.33 45.71 64.40 45.83
  L 79.58 72.24
  Q 79.92 72.85 80.18 72.20
  L 90.16 46.67
  A 0.48 0.48 0.0 0 1 90.81 46.41
  L 92.23 47.08
  Q 92.66 47.28 92.48 47.72
  L 81.82 74.92
  A 1.63 1.62 -49.8 0 0 81.93 76.32
  L 135.10 168.80
  A 0.24 0.24 0.0 0 0 135.49 168.84
  L 172.75 126.71
  A 2.03 1.96 -20.8 0 0 173.21 125.73
  L 192.53 5.79
  Q 192.59 5.41 192.97 5.47
  L 194.71 5.76
  Q 195.09 5.82 195.03 6.21
  L 175.57 127.01
  A 1.48 1.46 71.1 0 1 175.21 127.76
  L 136.95 171.01
  A 0.68 0.67 -39.6 0 0 136.87 171.80
  L 161.99 215.53
  Z"
/>
<path fill="#000000" d="
  M 297.54 92.16
  L 302.28 100.38
  L 388.92 250.78
  Q 389.22 251.29 389.73 250.99
  L 596.50 132.07
  Q 596.83 131.88 597.03 132.22
  L 598.67 135.06
  Q 598.94 135.53 598.48 135.79
  L 373.94 264.93
  A 0.49 0.48 -27.2 0 0 373.74 265.54
  L 400.55 325.47
  Q 400.77 325.97 400.53 326.47
  L 375.74 377.51
  A 0.86 0.85 -57.2 0 0 375.96 378.55
  L 583.07 553.40
  A 0.49 0.48 -49.7 0 1 583.12 554.08
  L 581.03 556.57
  A 0.53 0.51 -49.7 0 1 580.30 556.64
  L 395.74 400.82
  A 0.20 0.20 0.0 0 0 395.43 400.88
  L 348.46 493.21
  A 1.25 1.25 0.0 0 1 347.79 493.81
  L 269.70 523.51
  A 0.44 0.43 71.8 0 0 269.44 524.04
  L 280.71 563.74
  Q 280.78 564.00 280.52 564.07
  L 277.00 565.07
  Q 276.72 565.15 276.64 564.86
  L 265.53 525.73
  A 0.44 0.43 73.1 0 0 264.97 525.43
  L 185.79 552.58
  Q 185.41 552.71 185.15 552.41
  L 100.88 456.12
  A 0.14 0.13 -49.4 0 0 100.66 456.14
  L 40.90 566.40
  Q 40.62 566.91 40.12 566.63
  L 37.25 565.06
  A 0.40 0.39 -61.2 0 1 37.10 564.52
  L 97.37 453.35
  Q 97.76 452.63 97.21 452.02
  L 52.62 402.38
  A 0.50 0.49 -41.3 0 1 52.67 401.68
  L 53.90 400.65
  A 0.45 0.45 0.0 0 1 54.53 400.69
  L 76.67 425.36
  A 0.31 0.31 0.0 0 0 77.13 425.36
  L 116.78 381.62
  Q 117.16 381.20 117.09 380.64
  L 116.93 379.25
  Q 116.87 378.79 117.30 378.61
  L 128.06 374.10
  Q 128.70 373.83 128.89 373.17
  L 140.43 333.02
  Q 140.56 332.54 141.01 332.33
  L 185.51 310.64
  Q 185.95 310.43 185.78 309.97
  L 181.10 297.18
  A 0.60 0.60 0.0 0 0 180.29 296.84
  L 130.56 319.59
  Q 129.96 319.86 129.71 319.25
  L 129.22 318.02
  A 0.59 0.58 -24.0 0 1 129.51 317.27
  L 147.04 309.27
  A 0.44 0.43 67.3 0 0 147.26 308.72
  L 131.66 267.47
  Q 131.48 267.00 131.94 266.80
  L 133.30 266.23
  Q 133.82 266.01 134.03 266.54
  L 149.50 307.48
  Q 149.71 308.04 150.26 307.79
  L 179.25 294.52
  Q 179.56 294.39 179.39 294.09
  L 144.60 232.48
  Q 144.15 231.70 144.97 231.32
  L 145.57 231.03
  A 1.02 1.02 0.0 0 1 146.89 231.45
  L 181.65 292.95
  A 0.49 0.49 0.0 0 0 182.27 293.15
  L 197.27 286.28
  A 0.42 0.41 62.6 0 0 197.45 285.70
  L 162.98 225.79
  L 166.96 224.23
  L 200.49 282.53
  A 0.36 0.36 0.0 0 0 201.06 282.60
  L 210.29 272.81
  A 0.74 0.74 0.0 0 0 210.38 271.90
  L 192.04 242.95
  Q 191.74 242.47 192.20 242.14
  L 193.29 241.37
  Q 193.80 241.00 194.14 241.53
  L 212.32 270.18
  Q 212.50 270.47 212.74 270.22
  L 222.83 259.54
  Q 223.25 259.09 222.85 258.63
  L 185.09 214.88
  Q 184.52 214.22 185.14 213.60
  L 185.65 213.08
  Q 186.32 212.41 186.94 213.13
  L 226.07 258.51
  Q 226.30 258.77 226.56 258.55
  L 237.93 249.24
  A 0.48 0.48 0.0 0 1 238.60 249.29
  L 251.11 263.73
  Q 251.59 264.29 251.83 263.59
  Q 253.89 257.45 256.14 251.31
  Q 257.00 248.97 256.93 246.13
  Q 256.69 236.06 256.45 225.92
  Q 256.35 221.69 257.13 217.85
  Q 263.54 186.14 270.01 154.00
  A 0.61 0.60 12.9 0 1 270.75 153.54
  L 272.03 153.86
  Q 272.62 154.01 272.50 154.60
  Q 266.18 186.00 259.63 218.23
  Q 258.86 222.00 258.96 225.94
  Q 259.21 235.80 259.47 246.56
  Q 259.54 249.18 258.71 251.54
  Q 253.08 267.49 247.68 283.06
  Q 247.51 283.54 247.84 283.93
  L 272.42 313.64
  Q 272.98 314.32 272.27 314.84
  L 271.55 315.37
  Q 270.94 315.81 270.45 315.23
  L 245.69 285.31
  A 0.31 0.31 0.0 0 0 245.24 285.28
  L 234.62 295.15
  Q 234.21 295.53 234.58 295.95
  L 255.73 319.74
  A 1.32 1.32 0.0 0 0 256.78 320.18
  Q 260.73 319.98 264.90 319.94
  Q 267.34 319.92 269.81 318.66
  Q 276.73 315.13 283.35 311.77
  Q 289.55 308.63 296.32 304.73
  Q 341.75 278.56 386.73 252.71
  A 0.34 0.34 0.0 0 0 386.86 252.24
  L 300.14 101.80
  L 295.37 93.53
  L 246.31 8.39
  Q 246.05 7.94 246.45 7.61
  Q 247.07 7.08 247.82 6.81
  Q 248.27 6.65 248.51 7.06
  L 297.54 92.16
  Z
  M 245.27 280.84
  A 0.30 0.30 0.0 0 0 245.79 280.75
  L 250.53 267.16
  A 0.30 0.30 0.0 0 0 250.48 266.87
  L 238.20 252.69
  A 0.30 0.30 0.0 0 0 237.78 252.65
  L 228.58 260.18
  A 0.30 0.30 0.0 0 0 228.54 260.60
  L 245.27 280.84
  Z
  M 225.57 261.01
  A 0.42 0.42 0.0 0 0 224.94 260.99
  L 214.16 272.40
  A 0.42 0.42 0.0 0 0 214.16 272.97
  L 232.22 293.29
  A 0.42 0.42 0.0 0 0 232.81 293.32
  L 243.57 283.38
  A 0.42 0.42 0.0 0 0 243.61 282.80
  L 225.57 261.01
  Z
  M 373.14 376.17
  A 0.31 0.31 0.0 0 0 373.61 376.07
  L 397.91 326.04
  A 0.31 0.31 0.0 0 0 397.91 325.78
  L 371.50 266.73
  A 0.31 0.31 0.0 0 0 371.06 266.59
  L 295.47 310.06
  A 0.31 0.31 0.0 0 0 295.43 310.57
  L 373.14 376.17
  Z
  M 235.21 321.06
  A 0.30 0.30 0.0 0 1 235.39 320.99
  L 252.27 320.38
  A 0.30 0.30 0.0 0 0 252.49 319.88
  L 212.37 274.78
  A 0.30 0.30 0.0 0 0 211.93 274.78
  L 201.88 285.43
  A 0.30 0.30 0.0 0 0 201.81 285.71
  L 216.19 336.44
  A 0.30 0.30 0.0 0 0 216.67 336.59
  L 235.21 321.06
  Z
  M 200.65 343.32
  A 0.36 0.36 0.0 0 0 201.13 343.52
  L 212.18 338.88
  A 0.36 0.36 0.0 0 0 212.38 338.45
  L 198.36 289.02
  A 0.36 0.36 0.0 0 0 197.87 288.79
  L 183.50 295.36
  A 0.36 0.36 0.0 0 0 183.31 295.81
  L 200.65 343.32
  Z
  M 319.49 360.36
  A 0.56 0.56 0.0 0 1 318.69 360.43
  L 296.01 340.80
  A 1.91 1.82 68.8 0 0 295.05 340.35
  L 267.03 335.76
  A 1.52 1.46 72.6 0 1 266.15 335.28
  L 257.02 324.99
  A 1.63 1.61 67.8 0 0 255.75 324.45
  L 237.53 325.16
  Q 236.88 325.18 236.38 325.60
  L 217.77 341.17
  A 0.38 0.38 0.0 0 0 217.65 341.57
  L 245.23 438.76
  A 0.23 0.22 -19.2 0 0 245.53 438.90
  L 311.06 411.75
  Q 311.66 411.50 312.01 410.95
  L 345.30 358.81
  A 0.51 0.51 0.0 0 0 345.20 358.14
  L 291.64 312.91
  A 0.81 0.80 51.2 0 0 290.76 312.81
  Q 280.86 317.73 270.34 323.09
  Q 268.50 324.03 266.50 324.08
  Q 263.22 324.16 260.42 324.23
  Q 259.73 324.25 260.19 324.77
  L 267.44 332.93
  A 1.48 1.47 74.1 0 0 268.28 333.40
  L 296.17 337.97
  Q 296.74 338.06 297.19 338.44
  L 320.21 358.38
  Q 320.72 358.81 320.30 359.33
  L 319.49 360.36
  Z
  M 186.98 313.25
  A 0.42 0.42 0.0 0 0 186.40 313.01
  L 167.89 322.04
  A 0.42 0.42 0.0 0 0 167.68 322.57
  L 178.69 352.45
  A 0.42 0.42 0.0 0 0 179.24 352.69
  L 198.06 344.80
  A 0.42 0.42 0.0 0 0 198.29 344.27
  L 186.98 313.25
  Z
  M 165.42 323.79
  A 0.43 0.43 0.0 0 0 164.83 323.55
  L 154.39 328.63
  A 0.43 0.43 0.0 0 0 154.17 329.15
  L 163.83 358.64
  A 0.43 0.43 0.0 0 0 164.41 358.90
  L 176.12 353.98
  A 0.43 0.43 0.0 0 0 176.36 353.43
  L 165.42 323.79
  Z
  M 131.83 372.00
  A 0.31 0.31 0.0 0 0 132.25 372.37
  L 161.37 360.15
  A 0.31 0.31 0.0 0 0 161.54 359.77
  L 151.86 330.24
  A 0.31 0.31 0.0 0 0 151.43 330.06
  L 142.83 334.30
  A 0.31 0.31 0.0 0 0 142.67 334.49
  L 131.83 372.00
  Z
  M 213.49 378.52
  A 0.42 0.42 0.0 0 0 213.98 378.78
  L 222.77 376.68
  A 0.42 0.42 0.0 0 0 223.08 376.16
  L 213.77 343.30
  A 0.42 0.42 0.0 0 0 213.20 343.02
  L 202.59 347.47
  A 0.42 0.42 0.0 0 0 202.36 348.00
  L 213.49 378.52
  Z
  M 190.81 385.30
  A 0.40 0.40 0.0 0 0 191.30 385.54
  L 210.82 379.81
  A 0.40 0.40 0.0 0 0 211.08 379.29
  L 200.01 349.00
  A 0.40 0.40 0.0 0 0 199.48 348.77
  L 180.65 356.65
  A 0.40 0.40 0.0 0 0 180.43 357.16
  L 190.81 385.30
  Z
  M 217.79 450.07
  Q 217.95 450.61 217.42 450.80
  L 184.07 462.55
  A 0.30 0.30 0.0 0 0 183.90 462.97
  Q 196.69 487.38 208.61 509.87
  Q 209.86 512.23 210.20 514.80
  Q 211.83 526.99 213.65 539.99
  Q 213.70 540.34 214.04 540.22
  L 264.19 523.04
  A 0.59 0.58 -17.3 0 0 264.57 522.33
  L 237.67 427.55
  Q 237.53 427.04 237.03 427.21
  L 217.72 433.47
  A 0.49 0.48 72.8 0 1 217.10 433.14
  L 203.67 385.18
  Q 203.51 384.60 202.93 384.77
  L 189.96 388.60
  Q 189.38 388.77 189.17 388.20
  L 178.19 358.41
  A 0.64 0.64 0.0 0 0 177.34 358.04
  L 150.67 369.20
  A 0.57 0.56 71.0 0 0 150.35 369.87
  Q 157.90 397.67 165.51 426.18
  Q 166.63 430.39 168.73 434.29
  Q 175.38 446.62 182.25 459.93
  A 0.65 0.64 66.4 0 0 183.04 460.24
  L 216.77 448.36
  Q 217.21 448.20 217.35 448.65
  L 217.79 450.07
  Z
  M 365.83 452.60
  A 0.35 0.35 0.0 0 0 366.36 452.48
  L 393.44 399.25
  A 0.35 0.35 0.0 0 0 393.36 398.82
  L 347.82 360.34
  A 0.35 0.35 0.0 0 0 347.29 360.42
  L 314.48 411.80
  A 0.35 0.35 0.0 0 0 314.56 412.27
  L 365.83 452.60
  Z
  M 126.40 408.68
  L 102.24 453.24
  A 0.57 0.55 -51.9 0 0 102.31 453.88
  L 185.91 549.39
  A 0.71 0.71 0.0 0 0 186.67 549.60
  L 210.77 541.34
  A 0.67 0.67 0.0 0 0 211.22 540.60
  Q 209.53 529.08 207.82 515.95
  Q 207.48 513.29 206.26 510.97
  Q 186.61 473.52 166.27 435.00
  Q 164.10 430.89 162.97 426.62
  Q 155.57 398.79 148.01 370.90
  A 0.48 0.48 0.0 0 0 147.36 370.59
  L 121.98 381.21
  Q 121.59 381.38 121.67 381.78
  L 126.59 407.50
  A 1.77 1.73 -36.5 0 1 126.40 408.68
  Z
  M 218.81 429.89
  A 0.52 0.52 0.0 0 0 219.48 430.24
  L 236.36 424.76
  A 0.52 0.52 0.0 0 0 236.70 424.13
  L 224.00 379.38
  A 0.52 0.52 0.0 0 0 223.36 379.02
  L 206.44 383.63
  A 0.52 0.52 0.0 0 0 206.08 384.27
  L 218.81 429.89
  Z
  M 122.20 407.51
  A 0.31 0.31 0.0 0 0 122.23 407.30
  L 117.96 384.84
  A 0.31 0.31 0.0 0 0 117.42 384.69
  L 78.80 427.31
  A 0.31 0.31 0.0 0 0 78.80 427.73
  L 98.73 449.94
  A 0.31 0.31 0.0 0 0 99.23 449.88
  L 122.20 407.51
  Z
  M 285.91 468.03
  A 0.37 0.37 0.0 0 1 286.16 467.58
  L 319.41 457.88
  A 0.37 0.37 0.0 0 0 319.63 457.70
  L 333.56 430.81
  A 0.37 0.37 0.0 0 0 333.46 430.35
  L 312.68 414.02
  A 0.37 0.37 0.0 0 0 312.31 413.97
  L 246.30 441.32
  A 0.37 0.37 0.0 0 0 246.09 441.77
  L 268.52 520.81
  A 0.37 0.37 0.0 0 0 269.01 521.06
  L 346.34 491.64
  A 0.37 0.37 0.0 0 0 346.53 491.46
  L 364.87 455.42
  A 0.37 0.37 0.0 0 0 364.77 454.96
  L 336.07 432.40
  A 0.37 0.37 0.0 0 0 335.51 432.52
  L 321.38 459.83
  A 0.37 0.37 0.0 0 1 321.16 460.01
  L 286.81 470.03
  A 0.37 0.37 0.0 0 1 286.35 469.77
  L 285.91 468.03
  Z"
/>
<path fill="#038dff" d="
  M 295.37 93.53
  L 300.14 101.80
  Q 287.00 109.92 275.06 118.61
  C 268.96 123.05 262.81 128.46 257.21 133.67
  C 240.85 148.93 225.47 168.65 210.88 186.74
  Q 200.57 199.52 189.22 209.74
  Q 179.56 218.44 166.96 224.23
  L 162.98 225.79
  Q 159.25 227.04 155.96 227.80
  Q 140.54 231.37 126.07 234.36
  Q 112.58 237.15 82.08 245.86
  Q 51.45 254.60 6.27 268.58
  Q 1.19 270.15 0.00 265.13
  L 0.00 263.51
  Q 0.98 260.30 3.49 259.54
  C 53.67 244.21 90.81 232.18 133.50 223.01
  Q 149.20 219.64 158.02 217.11
  L 161.99 215.53
  C 173.93 211.40 184.17 202.27 192.52 193.29
  Q 200.44 184.77 221.59 158.60
  C 231.66 146.14 242.38 134.07 253.88 123.66
  C 266.26 112.43 281.18 102.98 295.37 93.53
  Z"
/>
</svg>
