<?xml version="1.0" encoding="utf-8" ?>
<svg xmlns="http://www.w3.org/2000/svg" xmlns:xlink="http://www.w3.org/1999/xlink" width="1024" height="1024">
	<path transform="scale(1.6 1.6)" d="M236.958 103.795C243.198 103.23 250.427 105.264 256.607 106.31L325.472 117.908C353.473 122.534 359.351 123.245 383.715 137.537L407.531 151.159L490.761 196.001C503.051 202.798 496.233 213.141 490.754 221.95L482.852 234.7C474.482 249.86 467.3 247.003 452.781 238.919L338.848 174.759C332.5 171.084 327.011 171.232 319.825 171.229L243.908 171.246C230.428 171.352 231.676 165.945 231.647 153.418L231.58 116.865C231.574 110.217 230.487 107.348 236.958 103.795Z"/>
	<path transform="scale(1.6 1.6)" d="M292.753 205.852L316.119 205.731C319.381 206.172 335.568 231.369 338.242 235.201L372.375 282.838C374.323 285.51 373.257 292.077 373.257 295.232L373.25 504.48C373.253 509.65 373.748 515.366 372.867 520.457L372.78 520.938C370.044 536.605 357.082 537.76 344.716 537.772L265.781 537.771L210.649 537.769C198.524 537.741 185.485 533.408 185.011 518.783L185.048 288.489C185.082 286.879 185.036 284.982 185.731 283.499L185.923 283.125C187.505 279.988 190.397 277.069 192.556 274.25L230.939 219.975C237.362 211.104 237.442 205.885 248.611 205.87L292.753 205.852ZM357.78 296.593L200.668 296.577L200.538 513.713C200.425 523.044 201.069 522.241 210.948 522.281L350.547 522.203C353.91 522.054 357.637 521.747 357.927 517.656C358.486 509.762 357.972 501.459 357.966 493.534L357.78 296.593ZM200.798 296.777L357.78 296.555C357.6 284.79 352.534 282.122 345.653 272.601L312.836 226.29C310.91 223.387 311.267 221.5 307.437 221.466L249.273 221.158L206.224 282.154C201.409 288.234 200.691 288.754 200.798 296.777Z"/>
	<path fill="#038DFF" transform="scale(1.6 1.6)" d="M357.78 296.593L357.966 493.534C357.972 501.459 358.486 509.762 357.927 517.656C357.637 521.747 353.91 522.054 350.547 522.203L210.948 522.281C201.069 522.241 200.425 523.044 200.538 513.713L200.668 296.577L357.78 296.593ZM278.745 387.394C271.265 394.713 265.478 404.489 259.742 413.235C247.876 431.325 234.152 450.681 254.108 470.485C261.25 477.573 269.415 480.909 279.465 480.902C302.865 479.488 320.647 456.446 310.276 434.439C305.841 425.028 299.555 416.242 293.892 407.529L287.285 397.524C285.148 394.302 282.986 390.924 280.027 388.392L278.745 387.394Z"/>
</svg>
