<?xml version="1.0" encoding="utf-8" ?>
<svg xmlns="http://www.w3.org/2000/svg" xmlns:xlink="http://www.w3.org/1999/xlink" width="1024" height="1024">
	<path transform="scale(1.6 1.6)" d="M250.29 220.401L250.293 202.413C250.299 197.86 249.755 194.106 251.764 189.932L252.281 188.858C255.491 182.582 260.439 181.618 266.717 181.582L377.529 181.577C378.928 181.65 379.937 181.935 381.163 182.599L381.562 182.819C389.792 187.23 389.719 195.254 389.733 203.274L389.823 220.236C386.828 220.977 383.077 220.57 379.978 220.57L356.566 220.558L274.731 220.278C272.396 219.183 256.146 222.662 251.562 222.755C250.658 222.151 250.632 221.413 250.29 220.401Z"/>
	<path transform="scale(1.6 1.6)" d="M452.577 343.573C477.509 341.557 502.027 364.218 504.64 388.53C508.019 419.977 487.239 443.018 456.801 446.245L447.5 446.049C419.516 442.781 400.363 415.933 403.668 388.496L403.736 387.969C406.645 363.849 428.523 344.611 452.577 343.573Z"/>
	<path transform="scale(1.6 1.6)" d="M164.322 343.57C166.381 343.256 168.802 343.484 170.871 343.614C231.16 347.401 237.614 437.833 171.953 446.226C168.391 446.289 164.693 446.445 161.15 446.06C120.893 441.683 102.159 391.231 129.047 361.428C138.18 351.306 150.532 344.28 164.322 343.57Z"/>
	<path fill="#038DFF" transform="scale(1.6 1.6)" d="M250.29 220.401C250.632 221.413 250.658 222.151 251.562 222.755C256.146 222.662 272.396 219.183 274.731 220.269L356.566 220.654L379.978 220.57C383.077 220.57 386.828 220.977 389.85 220.37L390.434 220.172C405.137 218.772 417.168 227.843 428.847 235.183L530.508 298.377C538.637 303.33 542.588 305.959 548.377 313.581C565.435 336.04 568.566 357.018 548.77 379.566C541.759 387.551 532.844 390.616 522.419 391.274L513.148 391.602C512.599 386.774 511.973 382.145 510.639 377.452C503.109 350.966 475.986 331.79 448.31 334.921C422.194 337.876 401.581 357.202 395.533 382.358C395.221 383.655 394.344 390.215 393.778 390.603L227.887 390.616C221.821 321.292 125.756 314.711 108.745 382.188C107.96 385.3 107.539 388.54 106.58 391.598C85.4213 392.524 65.139 381.624 64.3248 358.178C62.9375 318.226 82.1279 314.082 113.789 303.281L157.046 288.595C164.478 286.57 163.899 285.965 169.219 280.721L177.036 273.573C190.886 260.843 231.872 223.245 250.29 220.401ZM274.731 220.269C261.988 224.999 251.509 232.884 240.554 240.697L215.202 259.471C204.98 267.656 195.321 276.456 186 285.649L206.423 286.741L433.579 286.729C435.006 286.657 436.04 286.601 437.103 285.541L438.32 284.063C439.306 282.817 440.632 280.989 440.998 279.43C439.001 275.782 435.877 272.87 432.794 270.136L421.213 260.552C410.211 251.813 399.193 243.192 386.961 236.216L356.566 220.654L274.731 220.269Z"/>
</svg>
