<?xml version="1.0" encoding="UTF-8" standalone="no"?>
<!DOCTYPE svg PUBLIC "-//W3C//DTD SVG 1.1//EN" "http://www.w3.org/Graphics/SVG/1.1/DTD/svg11.dtd">
<svg xmlns="http://www.w3.org/2000/svg" version="1.1" viewBox="0.00 0.00 319.00 390.00">
<g stroke-width="2.00" fill="none" stroke-linecap="butt">
<path stroke="#fbf1ec" vector-effect="non-scaling-stroke" d="
  M 0.81 0.00
  Q 0.03 1.97 0.00 5.39"
/>
<path stroke="#fbf1ec" vector-effect="non-scaling-stroke" d="
  M 319.00 75.54
  Q 281.83 75.52 244.64 75.52
  Q 239.37 75.52 237.08 76.77
  Q 233.51 78.73 231.95 83.23
  Q 215.29 131.29 197.73 182.27
  Q 197.15 183.96 195.46 184.80"
/>
<path stroke="#c5a594" vector-effect="non-scaling-stroke" d="
  M 195.46 184.80
  Q 193.04 183.95 190.62 182.06"
/>
<path stroke="#fbf1ec" vector-effect="non-scaling-stroke" d="
  M 190.62 182.06
  L 187.36 167.93
  Q 187.14 166.93 186.17 167.27
  L 149.92 179.87
  A 1.24 1.23 68.0 0 1 148.40 179.22
  L 144.16 170.08
  A 1.38 1.38 0.0 0 1 144.88 168.22
  Q 147.42 167.15 150.08 166.76
  A 3.19 3.18 62.7 0 1 152.73 167.61
  C 155.42 170.19 157.46 169.07 161.04 167.82
  Q 172.11 163.98 184.01 159.85
  Q 184.90 159.54 185.42 160.33
  Q 185.64 160.67 185.80 161.04
  Q 186.82 163.40 187.28 160.88
  Q 187.47 159.83 187.76 158.97
  Q 199.16 125.30 211.48 90.44
  C 213.33 85.20 213.31 81.06 208.72 77.52
  Q 206.11 75.52 203.25 75.52
  Q 146.91 75.58 90.85 75.44"
/>
<path stroke="#7c726c" vector-effect="non-scaling-stroke" d="
  M 90.85 75.44
  Q 87.22 68.18 79.75 66.52
  Q 63.67 62.96 48.99 63.96
  C 38.80 64.65 31.17 69.41 22.95 74.56
  C 12.49 81.11 6.19 92.27 6.56 104.67
  C 6.80 112.77 7.55 121.52 11.31 128.48
  Q 13.65 132.82 17.21 138.31
  Q 18.69 140.59 18.08 146.11"
/>
<path stroke="#b3998b" vector-effect="non-scaling-stroke" d="
  M 18.08 146.11
  L 16.04 158.61"
/>
<path stroke="#8d94b2" vector-effect="non-scaling-stroke" d="
  M 16.04 158.61
  C 11.96 156.98 8.78 158.85 8.93 163.10
  C 9.20 170.58 9.82 177.71 4.30 183.55
  Q 2.13 185.86 0.00 188.15"
/>
<path stroke="#808080" vector-effect="non-scaling-stroke" d="
  M 90.85 75.44
  Q 92.60 79.03 97.18 82.57
  Q 102.40 86.59 102.79 94.64"
/>
<path stroke="#1a1a1a" vector-effect="non-scaling-stroke" d="
  M 102.79 94.64
  Q 98.13 92.83 95.13 93.58"
/>
<path stroke="#493328" vector-effect="non-scaling-stroke" d="
  M 95.13 93.58
  Q 87.99 92.77 83.74 93.38
  Q 79.06 94.06 77.22 98.56
  C 75.93 101.71 76.54 106.89 76.56 110.43
  Q 76.58 112.68 75.59 114.21
  Q 73.88 116.87 71.01 116.70
  Q 65.33 116.37 62.70 118.06"
/>
<path stroke="#1a1a1a" vector-effect="non-scaling-stroke" d="
  M 62.70 118.06
  L 44.72 118.36"
/>
<path stroke="#493328" vector-effect="non-scaling-stroke" d="
  M 44.72 118.36
  Q 42.76 115.41 40.78 114.17
  C 35.91 111.12 32.89 119.84 31.74 122.88"
/>
<path stroke="#38271f" vector-effect="non-scaling-stroke" d="
  M 31.74 122.88
  Q 25.73 124.86 24.19 130.44
  C 22.80 135.48 26.31 145.37 18.08 146.11"
/>
<path stroke="#c9b3a8" vector-effect="non-scaling-stroke" d="
  M 190.62 182.06
  Q 190.80 184.81 191.85 189.24
  C 192.96 193.89 197.82 191.15 199.29 188.60
  Q 199.94 187.46 198.81 186.79
  L 195.46 184.80"
/>
<path stroke="#fbf1ec" vector-effect="non-scaling-stroke" d="
  M 319.00 211.50
  L 202.74 211.63"
/>
<path stroke="#c9b3a8" vector-effect="non-scaling-stroke" d="
  M 202.74 211.63
  L 199.06 206.95
  A 0.35 0.34 -14.3 0 1 199.39 206.40
  Q 202.44 206.91 204.34 204.94
  Q 204.77 204.50 204.42 203.99
  C 201.30 199.48 200.20 195.14 193.46 195.59
  A 0.25 0.25 0.0 0 0 193.24 195.90
  Q 195.15 203.39 196.86 211.21
  C 197.31 213.23 196.37 214.91 195.26 216.49"
/>
<path stroke="#fbf1ec" vector-effect="non-scaling-stroke" d="
  M 195.26 216.49
  Q 191.44 216.42 187.59 218.33"
/>
<path stroke="#c9b3a8" vector-effect="non-scaling-stroke" d="
  M 187.59 218.33
  L 174.70 222.63
  A 0.80 0.79 76.5 0 1 173.67 221.99
  Q 173.35 219.85 172.01 217.94
  Q 166.51 210.09 160.63 202.02
  Q 159.62 200.63 161.31 192.19
  A 7.62 7.60 -62.5 0 0 159.12 185.22
  L 157.91 184.06
  Q 155.13 181.39 154.33 185.16
  Q 152.66 193.09 151.40 199.01
  C 150.48 203.37 151.80 209.24 152.27 213.71"
/>
<path stroke="#fbf1ec" vector-effect="non-scaling-stroke" d="
  M 152.27 213.71
  Q 151.07 213.67 150.99 213.06
  A 1.68 1.61 86.7 0 0 149.41 211.59
  Q 136.36 211.35 124.01 211.56
  C 116.86 211.68 112.10 210.33 106.85 205.39
  Q 95.46 194.68 79.53 180.22
  Q 79.49 180.18 77.03 178.24
  Q 75.78 177.26 74.77 175.93"
/>
<path stroke="#c9b3a8" vector-effect="non-scaling-stroke" d="
  M 74.77 175.93
  Q 76.75 176.26 78.45 176.71
  C 85.63 178.64 87.20 173.70 87.56 167.83
  A 2.57 2.56 68.6 0 1 88.25 166.24
  L 91.49 162.76
  A 0.80 0.79 -41.3 0 0 91.56 161.75
  L 90.66 160.49
  A 1.27 1.26 60.2 0 1 91.17 158.60
  L 92.44 158.03
  Q 93.10 157.73 93.09 157.00
  C 93.06 155.84 92.65 154.43 93.17 153.36
  Q 94.04 151.59 95.52 150.53
  A 2.07 2.06 31.1 0 1 97.06 150.15
  C 99.62 150.53 104.91 150.61 103.01 146.21
  Q 100.56 140.55 97.84 135.03"
/>
<path stroke="#999999" vector-effect="non-scaling-stroke" d="
  M 97.84 135.03
  Q 96.20 129.65 99.01 124.80
  Q 99.27 124.36 99.15 123.85
  L 98.35 120.23"
/>
<path stroke="#c9b3a8" vector-effect="non-scaling-stroke" d="
  M 98.35 120.23
  Q 98.29 116.77 98.71 113.26
  C 99.19 109.23 99.00 106.89 98.34 103.18
  Q 98.17 102.21 98.77 101.78"
/>
<path stroke="#999999" vector-effect="non-scaling-stroke" d="
  M 98.77 101.78
  Q 101.34 101.65 102.16 100.16
  Q 103.83 97.12 102.79 94.64"
/>
<path stroke="#634d42" vector-effect="non-scaling-stroke" d="
  M 95.13 93.58
  Q 95.70 98.62 98.77 101.78"
/>
<path stroke="#634d42" vector-effect="non-scaling-stroke" d="
  M 98.35 120.23
  Q 97.01 118.30 94.24 118.22
  Q 87.57 118.03 62.70 118.06"
/>
<path stroke="#634d42" vector-effect="non-scaling-stroke" d="
  M 44.72 118.36
  L 45.97 124.56"
/>
<path stroke="#493328" vector-effect="non-scaling-stroke" d="
  M 45.97 124.56
  L 46.05 128.62
  Q 46.06 129.14 46.58 129.20
  Q 53.50 129.89 58.38 124.52"
/>
<path stroke="#634d42" vector-effect="non-scaling-stroke" d="
  M 58.38 124.52
  Q 59.84 123.87 61.00 123.78
  Q 75.64 122.70 90.44 121.36
  A 1.59 1.59 0.0 0 1 92.17 123.01
  L 91.55 136.24
  A 1.81 1.80 85.3 0 0 93.72 138.09
  Q 96.03 137.60 97.84 135.03"
/>
<path stroke="#c5a594" vector-effect="non-scaling-stroke" d="
  M 74.77 175.93
  L 62.67 172.52
  A 2.73 2.73 0.0 0 0 59.20 175.13
  L 59.14 183.23"
/>
<path stroke="#5a556e" vector-effect="non-scaling-stroke" d="
  M 59.14 183.23
  Q 59.07 182.46 58.49 182.67
  A 0.63 0.61 -38.9 0 1 57.96 182.62
  L 21.25 161.69"
/>
<path stroke="#815a47" vector-effect="non-scaling-stroke" d="
  M 21.25 161.69
  L 43.17 140.44
  Q 43.62 140.00 43.01 139.88
  Q 39.78 139.23 36.50 137.06
  C 32.35 134.30 31.67 127.48 31.74 122.88"
/>
<path stroke="#1a1a1a" vector-effect="non-scaling-stroke" d="
  M 58.38 124.52
  L 45.97 124.56"
/>
<path stroke="#494965" vector-effect="non-scaling-stroke" d="
  M 21.25 161.69
  L 16.04 158.61"
/>
<path stroke="#8d94b2" vector-effect="non-scaling-stroke" d="
  M 59.14 183.23
  Q 62.29 185.26 65.73 187.53
  Q 66.97 188.36 67.83 191.67"
/>
<path stroke="#112246" vector-effect="non-scaling-stroke" d="
  M 67.83 191.67
  Q 67.36 195.21 67.65 198.70
  Q 67.88 201.45 69.55 204.55
  Q 73.41 211.72 77.18 219.12"
/>
<path stroke="#2e5bbb" vector-effect="non-scaling-stroke" d="
  M 77.18 219.12
  L 77.30 285.19"
/>
<path stroke="#1d3975" vector-effect="non-scaling-stroke" d="
  M 77.30 285.19
  Q 76.23 283.81 75.09 282.56
  C 71.92 279.08 69.41 274.11 67.10 269.90
  Q 66.96 269.64 66.65 269.70
  Q 66.02 269.84 66.23 270.46
  C 66.92 272.41 67.80 274.31 68.41 276.31
  Q 70.89 284.43 73.49 292.50
  Q 75.17 297.69 77.38 300.84"
/>
<path stroke="#2e5bbb" vector-effect="non-scaling-stroke" d="
  M 77.38 300.84
  Q 77.81 301.88 77.80 303.64
  Q 77.78 305.21 78.17 306.37
  Q 84.62 325.83 91.18 345.26
  C 91.73 346.87 94.44 350.65 96.53 349.01"
/>
<path stroke="#1d3975" vector-effect="non-scaling-stroke" d="
  M 96.53 349.01
  Q 97.29 349.47 98.00 349.47
  Q 119.22 349.50 137.50 349.39
  Q 139.52 349.37 141.72 349.26
  A 0.42 0.42 0.0 0 0 142.02 348.57
  C 139.11 345.05 136.34 342.28 131.32 342.28
  Q 123.78 342.28 116.24 342.09
  Q 112.01 341.99 108.93 339.78
  Q 107.10 338.47 104.53 333.94
  Q 100.96 327.63 96.62 321.38"
/>
<path stroke="#2e5bbb" vector-effect="non-scaling-stroke" d="
  M 96.62 321.38
  L 96.90 256.77"
/>
<path stroke="#112246" vector-effect="non-scaling-stroke" d="
  M 96.90 256.77
  Q 99.49 260.35 100.50 262.23
  Q 119.92 298.45 139.16 334.76
  Q 141.73 339.60 147.25 341.06
  Q 151.33 342.15 153.09 342.43"
/>
<path stroke="#8d94b2" vector-effect="non-scaling-stroke" d="
  M 153.09 342.43
  L 156.92 348.34
  A 2.57 2.56 73.4 0 0 159.07 349.51
  L 180.30 349.49
  Q 180.81 349.49 181.04 349.95
  Q 181.48 350.85 181.24 352.16"
/>
<path stroke="#5a556e" vector-effect="non-scaling-stroke" d="
  M 181.24 352.16
  L 181.63 371.95"
/>
<path stroke="#112246" vector-effect="non-scaling-stroke" d="
  M 181.63 371.95
  Q 180.96 372.67 180.09 373.71
  C 178.65 375.42 176.67 375.90 174.56 375.95
  C 166.75 376.14 158.16 374.55 151.81 380.47
  Q 148.55 383.51 145.39 386.68
  Q 144.33 387.75 142.86 388.32
  Q 141.71 388.77 140.09 388.70
  Q 136.79 388.56 134.50 389.76"
/>
<path stroke="#91a2c6" vector-effect="non-scaling-stroke" d="
  M 134.50 389.76
  L 107.40 390.00"
/>
<path stroke="#1d3975" vector-effect="non-scaling-stroke" d="
  M 51.36 390.00
  L 58.23 389.61
  Q 59.20 389.56 58.42 388.98
  Q 54.21 385.88 52.12 382.08
  Q 27.32 336.95 2.59 291.79
  Q 2.57 291.76 1.54 289.60
  Q 0.86 288.16 0.00 287.68"
/>
<path stroke="#91a2c6" vector-effect="non-scaling-stroke" d="
  M 174.79 368.52
  A 2.01 2.01 0.0 0 0 172.78 366.51
  A 2.01 2.01 0.0 0 0 170.77 368.52
  A 2.01 2.01 0.0 0 0 172.78 370.53
  A 2.01 2.01 0.0 0 0 174.79 368.52"
/>
<path stroke="#c5a594" vector-effect="non-scaling-stroke" d="
  M 152.27 213.71
  L 153.41 223.61
  A 2.17 2.13 61.1 0 1 152.97 225.18
  L 145.54 234.79"
/>
<path stroke="#8d94b2" vector-effect="non-scaling-stroke" d="
  M 145.54 234.79
  L 116.78 267.87"
/>
<path stroke="#7c726c" vector-effect="non-scaling-stroke" d="
  M 116.78 267.87
  L 84.07 214.51"
/>
<path stroke="#99aae1" vector-effect="non-scaling-stroke" d="
  M 84.07 214.51
  L 78.14 204.92"
/>
<path stroke="#7c726c" vector-effect="non-scaling-stroke" d="
  M 78.14 204.92
  Q 74.54 197.74 70.92 193.08
  Q 70.15 192.08 67.83 191.67"
/>
<path stroke="#c5a594" vector-effect="non-scaling-stroke" d="
  M 187.59 218.33
  Q 186.82 222.66 186.00 226.70
  C 185.66 228.34 184.73 230.47 183.85 231.58
  Q 175.17 242.42 165.99 253.68"
/>
<path stroke="#5a556e" vector-effect="non-scaling-stroke" d="
  M 165.99 253.68
  L 145.54 234.79"
/>
<path stroke="#1d3975" vector-effect="non-scaling-stroke" d="
  M 78.14 204.92
  Q 77.22 206.41 77.33 208.00
  Q 77.70 213.45 77.18 219.12"
/>
<path stroke="#c5a594" vector-effect="non-scaling-stroke" d="
  M 202.74 211.63
  L 200.83 221.39
  A 0.69 0.68 -81.7 0 1 200.09 221.95
  Q 195.48 221.55 195.26 216.49"
/>
<path stroke="#1d3975" vector-effect="non-scaling-stroke" d="
  M 84.07 214.51
  Q 92.46 229.16 95.11 245.53
  Q 96.07 251.47 96.90 256.77"
/>
<path stroke="#294fa3" vector-effect="non-scaling-stroke" d="
  M 96.62 321.38
  L 96.53 349.01"
/>
<path stroke="#294fa3" vector-effect="non-scaling-stroke" d="
  M 77.38 300.84
  L 77.30 285.19"
/>
<path stroke="#fbf1ec" vector-effect="non-scaling-stroke" d="
  M 319.00 259.20
  Q 319.08 262.66 316.20 257.37
  A 0.86 0.85 57.7 0 0 314.94 257.08
  L 301.61 266.70"
/>
<path stroke="#f3d2c1" vector-effect="non-scaling-stroke" d="
  M 301.61 266.70
  Q 297.41 260.81 293.07 254.85
  Q 288.77 248.93 286.41 247.63
  Q 281.09 244.71 275.27 250.54"
/>
<path stroke="#fbf1ec" vector-effect="non-scaling-stroke" d="
  M 275.27 250.54
  Q 275.15 250.39 275.12 250.22
  Q 275.07 249.92 274.82 250.11
  Q 265.75 257.32 254.66 264.82
  Q 254.13 265.18 254.50 265.70
  L 262.57 276.98
  Q 264.18 279.24 262.42 281.39
  Q 262.04 281.86 261.47 282.13
  Q 258.41 283.55 256.47 280.79
  L 248.82 269.92
  Q 248.48 269.44 248.01 269.79
  L 241.12 274.80
  Q 240.63 275.16 240.98 275.65
  L 255.28 295.79
  Q 256.94 298.12 254.99 300.22
  Q 254.62 300.62 254.09 300.84
  Q 250.99 302.16 249.05 299.40
  L 235.45 280.12
  A 1.07 1.07 0.0 0 0 233.95 279.88
  L 226.91 285.04
  A 1.13 1.12 -36.5 0 0 226.67 286.61
  L 233.88 296.51
  Q 235.93 299.32 233.48 301.78
  Q 233.14 302.12 232.69 302.26
  Q 229.93 303.17 228.48 301.28
  Q 224.80 296.47 220.98 290.58
  A 0.97 0.96 55.4 0 0 219.60 290.32
  L 177.82 320.51
  A 0.74 0.74 0.0 0 0 177.65 321.52
  L 193.00 344.35"
/>
<path stroke="#c5a594" vector-effect="non-scaling-stroke" d="
  M 193.00 344.35
  L 181.24 352.16"
/>
<path stroke="#7c726c" vector-effect="non-scaling-stroke" d="
  M 153.09 342.43
  C 153.63 339.46 154.92 336.11 155.07 333.42
  Q 155.22 330.78 154.27 329.25
  Q 147.61 318.42 141.61 308.48"
/>
<path stroke="#8d94b2" vector-effect="non-scaling-stroke" d="
  M 141.61 308.48
  Q 149.62 293.18 156.98 278.47
  Q 158.93 274.58 159.19 270.30
  C 159.38 267.35 159.61 265.48 161.21 263.43
  Q 164.03 259.84 167.15 256.17
  Q 167.51 255.75 167.28 255.25
  Q 166.82 254.22 165.99 253.68"
/>
<path stroke="#112246" vector-effect="non-scaling-stroke" d="
  M 116.78 267.87
  L 141.61 308.48"
/>
<path stroke="#f7e0d4" vector-effect="non-scaling-stroke" d="
  M 301.61 266.70
  Q 307.44 274.76 313.32 282.47
  Q 314.94 284.58 315.72 284.85
  Q 317.48 285.44 319.00 286.17"
/>
<path stroke="#f3d2c1" vector-effect="non-scaling-stroke" d="
  M 319.00 288.55
  L 248.32 339.38"
/>
<path stroke="#c1947d" vector-effect="non-scaling-stroke" d="
  M 248.32 339.38
  Q 236.40 344.67 225.03 350.03
  C 222.45 351.25 219.73 352.17 216.88 351.67
  C 212.26 350.84 211.32 345.32 215.37 342.86
  Q 221.18 339.34 224.95 335.05"
/>
<path stroke="#f7e0d4" vector-effect="non-scaling-stroke" d="
  M 224.95 335.05
  Q 226.58 334.64 228.13 333.35
  Q 230.44 331.42 230.52 331.37
  Q 260.64 309.57 290.75 287.75
  C 293.57 285.70 291.82 283.47 290.42 281.38
  Q 283.14 270.53 275.89 260.85
  Q 272.50 256.33 275.27 250.54"
/>
<path stroke="#c9b3a8" vector-effect="non-scaling-stroke" d="
  M 224.95 335.05
  Q 226.40 331.45 223.51 330.82
  A 1.65 1.60 -52.8 0 0 222.40 330.99
  C 215.63 334.76 208.94 338.64 201.50 341.23
  Q 197.04 342.77 193.00 344.35"
/>
<path stroke="#8b96ae" vector-effect="non-scaling-stroke" d="
  M 50.21 390.00
  L 44.65 390.00"
/>
<path stroke="#8b96ae" vector-effect="non-scaling-stroke" d="
  M 35.70 390.00
  L 32.78 389.54"
/>
<path stroke="#837783" vector-effect="non-scaling-stroke" d="
  M 32.78 389.54
  Q 28.96 382.57 27.09 377.68
  Q 13.96 343.33 0.75 308.80"
/>
<path stroke="#8b96ae" vector-effect="non-scaling-stroke" d="
  M 0.75 308.80
  Q 0.27 308.27 0.00 306.46"
/>
<path stroke="#958b86" vector-effect="non-scaling-stroke" d="
  M 319.00 352.51
  L 241.43 352.49"
/>
<path stroke="#c5a594" vector-effect="non-scaling-stroke" d="
  M 241.43 352.49
  Q 242.37 351.39 243.41 350.40
  Q 244.53 349.34 245.05 348.15
  Q 246.78 344.16 248.32 339.38"
/>
<path stroke="#f7e0d4" vector-effect="non-scaling-stroke" d="
  M 0.75 308.80
  L 0.00 314.25"
/>
<path stroke="#f7e0d4" vector-effect="non-scaling-stroke" d="
  M 32.78 389.54
  L 29.73 390.00"
/>
<path stroke="#f7e0d4" vector-effect="non-scaling-stroke" d="
  M 24.90 390.00
  L 0.00 389.80"
/>
<path stroke="#634d42" vector-effect="non-scaling-stroke" d="
  M 241.43 352.49
  L 235.36 359.94
  Q 234.86 360.55 234.17 360.91
  L 214.75 370.98"
/>
<path stroke="#493328" vector-effect="non-scaling-stroke" d="
  M 214.75 370.98
  Q 209.51 371.92 207.75 371.93
  Q 195.13 371.95 181.63 371.95"
/>
<path stroke="#1a1a1a" vector-effect="non-scaling-stroke" d="
  M 319.00 371.67
  Q 268.46 371.90 237.25 371.65
  Q 225.18 371.55 219.25 371.73
  Q 218.21 371.77 214.75 370.98"
/>
<path stroke="#808080" vector-effect="non-scaling-stroke" d="
  M 319.00 389.80
  L 134.50 389.76"
/>
</g>
<path fill="#ffffff" d="
  M 0.00 0.00
  L 0.81 0.00
  Q 0.03 1.97 0.00 5.39
  L 0.00 0.00
  Z"
/>
<path fill="#f7e3d8" d="
  M 0.81 0.00
  L 319.00 0.00
  L 319.00 75.54
  Q 281.83 75.52 244.64 75.52
  Q 239.37 75.52 237.08 76.77
  Q 233.51 78.73 231.95 83.23
  Q 215.29 131.29 197.73 182.27
  Q 197.15 183.96 195.46 184.80
  Q 193.04 183.95 190.62 182.06
  L 187.36 167.93
  Q 187.14 166.93 186.17 167.27
  L 149.92 179.87
  A 1.24 1.23 68.0 0 1 148.40 179.22
  L 144.16 170.08
  A 1.38 1.38 0.0 0 1 144.88 168.22
  Q 147.42 167.15 150.08 166.76
  A 3.19 3.18 62.7 0 1 152.73 167.61
  C 155.42 170.19 157.46 169.07 161.04 167.82
  Q 172.11 163.98 184.01 159.85
  Q 184.90 159.54 185.42 160.33
  Q 185.64 160.67 185.80 161.04
  Q 186.82 163.40 187.28 160.88
  Q 187.47 159.83 187.76 158.97
  Q 199.16 125.30 211.48 90.44
  C 213.33 85.20 213.31 81.06 208.72 77.52
  Q 206.11 75.52 203.25 75.52
  Q 146.91 75.58 90.85 75.44
  Q 87.22 68.18 79.75 66.52
  Q 63.67 62.96 48.99 63.96
  C 38.80 64.65 31.17 69.41 22.95 74.56
  C 12.49 81.11 6.19 92.27 6.56 104.67
  C 6.80 112.77 7.55 121.52 11.31 128.48
  Q 13.65 132.82 17.21 138.31
  Q 18.69 140.59 18.08 146.11
  L 16.04 158.61
  C 11.96 156.98 8.78 158.85 8.93 163.10
  C 9.20 170.58 9.82 177.71 4.30 183.55
  Q 2.13 185.86 0.00 188.15
  L 0.00 5.39
  Q 0.03 1.97 0.81 0.00
  Z"
/>
<path fill="#000000" d="
  M 90.85 75.44
  Q 92.60 79.03 97.18 82.57
  Q 102.40 86.59 102.79 94.64
  Q 98.13 92.83 95.13 93.58
  Q 87.99 92.77 83.74 93.38
  Q 79.06 94.06 77.22 98.56
  C 75.93 101.71 76.54 106.89 76.56 110.43
  Q 76.58 112.68 75.59 114.21
  Q 73.88 116.87 71.01 116.70
  Q 65.33 116.37 62.70 118.06
  L 44.72 118.36
  Q 42.76 115.41 40.78 114.17
  C 35.91 111.12 32.89 119.84 31.74 122.88
  Q 25.73 124.86 24.19 130.44
  C 22.80 135.48 26.31 145.37 18.08 146.11
  Q 18.69 140.59 17.21 138.31
  Q 13.65 132.82 11.31 128.48
  C 7.55 121.52 6.80 112.77 6.56 104.67
  C 6.19 92.27 12.49 81.11 22.95 74.56
  C 31.17 69.41 38.80 64.65 48.99 63.96
  Q 63.67 62.96 79.75 66.52
  Q 87.22 68.18 90.85 75.44
  Z"
/>
<path fill="#ffffff" d="
  M 90.85 75.44
  Q 146.91 75.58 203.25 75.52
  Q 206.11 75.52 208.72 77.52
  C 213.31 81.06 213.33 85.20 211.48 90.44
  Q 199.16 125.30 187.76 158.97
  Q 187.47 159.83 187.28 160.88
  Q 186.82 163.40 185.80 161.04
  Q 185.64 160.67 185.42 160.33
  Q 184.90 159.54 184.01 159.85
  Q 172.11 163.98 161.04 167.82
  C 157.46 169.07 155.42 170.19 152.73 167.61
  A 3.19 3.18 62.7 0 0 150.08 166.76
  Q 147.42 167.15 144.88 168.22
  A 1.38 1.38 0.0 0 0 144.16 170.08
  L 148.40 179.22
  A 1.24 1.23 68.0 0 0 149.92 179.87
  L 186.17 167.27
  Q 187.14 166.93 187.36 167.93
  L 190.62 182.06
  Q 190.80 184.81 191.85 189.24
  C 192.96 193.89 197.82 191.15 199.29 188.60
  Q 199.94 187.46 198.81 186.79
  L 195.46 184.80
  Q 197.15 183.96 197.73 182.27
  Q 215.29 131.29 231.95 83.23
  Q 233.51 78.73 237.08 76.77
  Q 239.37 75.52 244.64 75.52
  Q 281.83 75.52 319.00 75.54
  L 319.00 211.50
  L 202.74 211.63
  L 199.06 206.95
  A 0.35 0.34 -14.3 0 1 199.39 206.40
  Q 202.44 206.91 204.34 204.94
  Q 204.77 204.50 204.42 203.99
  C 201.30 199.48 200.20 195.14 193.46 195.59
  A 0.25 0.25 0.0 0 0 193.24 195.90
  Q 195.15 203.39 196.86 211.21
  C 197.31 213.23 196.37 214.91 195.26 216.49
  Q 191.44 216.42 187.59 218.33
  L 174.70 222.63
  A 0.80 0.79 76.5 0 1 173.67 221.99
  Q 173.35 219.85 172.01 217.94
  Q 166.51 210.09 160.63 202.02
  Q 159.62 200.63 161.31 192.19
  A 7.62 7.60 -62.5 0 0 159.12 185.22
  L 157.91 184.06
  Q 155.13 181.39 154.33 185.16
  Q 152.66 193.09 151.40 199.01
  C 150.48 203.37 151.80 209.24 152.27 213.71
  Q 151.07 213.67 150.99 213.06
  A 1.68 1.61 86.7 0 0 149.41 211.59
  Q 136.36 211.35 124.01 211.56
  C 116.86 211.68 112.10 210.33 106.85 205.39
  Q 95.46 194.68 79.53 180.22
  Q 79.49 180.18 77.03 178.24
  Q 75.78 177.26 74.77 175.93
  Q 76.75 176.26 78.45 176.71
  C 85.63 178.64 87.20 173.70 87.56 167.83
  A 2.57 2.56 68.6 0 1 88.25 166.24
  L 91.49 162.76
  A 0.80 0.79 -41.3 0 0 91.56 161.75
  L 90.66 160.49
  A 1.27 1.26 60.2 0 1 91.17 158.60
  L 92.44 158.03
  Q 93.10 157.73 93.09 157.00
  C 93.06 155.84 92.65 154.43 93.17 153.36
  Q 94.04 151.59 95.52 150.53
  A 2.07 2.06 31.1 0 1 97.06 150.15
  C 99.62 150.53 104.91 150.61 103.01 146.21
  Q 100.56 140.55 97.84 135.03
  Q 96.20 129.65 99.01 124.80
  Q 99.27 124.36 99.15 123.85
  L 98.35 120.23
  Q 98.29 116.77 98.71 113.26
  C 99.19 109.23 99.00 106.89 98.34 103.18
  Q 98.17 102.21 98.77 101.78
  Q 101.34 101.65 102.16 100.16
  Q 103.83 97.12 102.79 94.64
  Q 102.40 86.59 97.18 82.57
  Q 92.60 79.03 90.85 75.44
  Z"
/>
<path fill="#926650" d="
  M 95.13 93.58
  Q 95.70 98.62 98.77 101.78
  Q 98.17 102.21 98.34 103.18
  C 99.00 106.89 99.19 109.23 98.71 113.26
  Q 98.29 116.77 98.35 120.23
  Q 97.01 118.30 94.24 118.22
  Q 87.57 118.03 62.70 118.06
  Q 65.33 116.37 71.01 116.70
  Q 73.88 116.87 75.59 114.21
  Q 76.58 112.68 76.56 110.43
  C 76.54 106.89 75.93 101.71 77.22 98.56
  Q 79.06 94.06 83.74 93.38
  Q 87.99 92.77 95.13 93.58
  Z"
/>
<path fill="#333333" d="
  M 102.79 94.64
  Q 103.83 97.12 102.16 100.16
  Q 101.34 101.65 98.77 101.78
  Q 95.70 98.62 95.13 93.58
  Q 98.13 92.83 102.79 94.64
  Z"
/>
<path fill="#926650" d="
  M 44.72 118.36
  L 45.97 124.56
  L 46.05 128.62
  Q 46.06 129.14 46.58 129.20
  Q 53.50 129.89 58.38 124.52
  Q 59.84 123.87 61.00 123.78
  Q 75.64 122.70 90.44 121.36
  A 1.59 1.59 0.0 0 1 92.17 123.01
  L 91.55 136.24
  A 1.81 1.80 85.3 0 0 93.72 138.09
  Q 96.03 137.60 97.84 135.03
  Q 100.56 140.55 103.01 146.21
  C 104.91 150.61 99.62 150.53 97.06 150.15
  A 2.07 2.06 31.1 0 0 95.52 150.53
  Q 94.04 151.59 93.17 153.36
  C 92.65 154.43 93.06 155.84 93.09 157.00
  Q 93.10 157.73 92.44 158.03
  L 91.17 158.60
  A 1.27 1.26 60.2 0 0 90.66 160.49
  L 91.56 161.75
  A 0.80 0.79 -41.3 0 1 91.49 162.76
  L 88.25 166.24
  A 2.57 2.56 68.6 0 0 87.56 167.83
  C 87.20 173.70 85.63 178.64 78.45 176.71
  Q 76.75 176.26 74.77 175.93
  L 62.67 172.52
  A 2.73 2.73 0.0 0 0 59.20 175.13
  L 59.14 183.23
  Q 59.07 182.46 58.49 182.67
  A 0.63 0.61 -38.9 0 1 57.96 182.62
  L 21.25 161.69
  L 43.17 140.44
  Q 43.62 140.00 43.01 139.88
  Q 39.78 139.23 36.50 137.06
  C 32.35 134.30 31.67 127.48 31.74 122.88
  C 32.89 119.84 35.91 111.12 40.78 114.17
  Q 42.76 115.41 44.72 118.36
  Z"
/>
<path fill="#333333" d="
  M 62.70 118.06
  Q 87.57 118.03 94.24 118.22
  Q 97.01 118.30 98.35 120.23
  L 99.15 123.85
  Q 99.27 124.36 99.01 124.80
  Q 96.20 129.65 97.84 135.03
  Q 96.03 137.60 93.72 138.09
  A 1.81 1.80 85.3 0 1 91.55 136.24
  L 92.17 123.01
  A 1.59 1.59 0.0 0 0 90.44 121.36
  Q 75.64 122.70 61.00 123.78
  Q 59.84 123.87 58.38 124.52
  L 45.97 124.56
  L 44.72 118.36
  L 62.70 118.06
  Z"
/>
<path fill="#6f4e3d" d="
  M 31.74 122.88
  C 31.67 127.48 32.35 134.30 36.50 137.06
  Q 39.78 139.23 43.01 139.88
  Q 43.62 140.00 43.17 140.44
  L 21.25 161.69
  L 16.04 158.61
  L 18.08 146.11
  C 26.31 145.37 22.80 135.48 24.19 130.44
  Q 25.73 124.86 31.74 122.88
  Z"
/>
<path fill="#000000" d="
  M 58.38 124.52
  Q 53.50 129.89 46.58 129.20
  Q 46.06 129.14 46.05 128.62
  L 45.97 124.56
  L 58.38 124.52
  Z"
/>
<path fill="#22448c" d="
  M 16.04 158.61
  L 21.25 161.69
  L 57.96 182.62
  A 0.63 0.61 -38.9 0 0 58.49 182.67
  Q 59.07 182.46 59.14 183.23
  Q 62.29 185.26 65.73 187.53
  Q 66.97 188.36 67.83 191.67
  Q 67.36 195.21 67.65 198.70
  Q 67.88 201.45 69.55 204.55
  Q 73.41 211.72 77.18 219.12
  L 77.30 285.19
  Q 76.23 283.81 75.09 282.56
  C 71.92 279.08 69.41 274.11 67.10 269.90
  Q 66.96 269.64 66.65 269.70
  Q 66.02 269.84 66.23 270.46
  C 66.92 272.41 67.80 274.31 68.41 276.31
  Q 70.89 284.43 73.49 292.50
  Q 75.17 297.69 77.38 300.84
  Q 77.81 301.88 77.80 303.64
  Q 77.78 305.21 78.17 306.37
  Q 84.62 325.83 91.18 345.26
  C 91.73 346.87 94.44 350.65 96.53 349.01
  Q 97.29 349.47 98.00 349.47
  Q 119.22 349.50 137.50 349.39
  Q 139.52 349.37 141.72 349.26
  A 0.42 0.42 0.0 0 0 142.02 348.57
  C 139.11 345.05 136.34 342.28 131.32 342.28
  Q 123.78 342.28 116.24 342.09
  Q 112.01 341.99 108.93 339.78
  Q 107.10 338.47 104.53 333.94
  Q 100.96 327.63 96.62 321.38
  L 96.90 256.77
  Q 99.49 260.35 100.50 262.23
  Q 119.92 298.45 139.16 334.76
  Q 141.73 339.60 147.25 341.06
  Q 151.33 342.15 153.09 342.43
  L 156.92 348.34
  A 2.57 2.56 73.4 0 0 159.07 349.51
  L 180.30 349.49
  Q 180.81 349.49 181.04 349.95
  Q 181.48 350.85 181.24 352.16
  L 181.63 371.95
  Q 180.96 372.67 180.09 373.71
  C 178.65 375.42 176.67 375.90 174.56 375.95
  C 166.75 376.14 158.16 374.55 151.81 380.47
  Q 148.55 383.51 145.39 386.68
  Q 144.33 387.75 142.86 388.32
  Q 141.71 388.77 140.09 388.70
  Q 136.79 388.56 134.50 389.76
  L 107.40 390.00
  L 51.36 390.00
  L 58.23 389.61
  Q 59.20 389.56 58.42 388.98
  Q 54.21 385.88 52.12 382.08
  Q 27.32 336.95 2.59 291.79
  Q 2.57 291.76 1.54 289.60
  Q 0.86 288.16 0.00 287.68
  L 0.00 188.15
  Q 2.13 185.86 4.30 183.55
  C 9.82 177.71 9.20 170.58 8.93 163.10
  C 8.78 158.85 11.96 156.98 16.04 158.61
  Z
  M 174.79 368.52
  A 2.01 2.01 0.0 0 0 172.78 366.51
  A 2.01 2.01 0.0 0 0 170.77 368.52
  A 2.01 2.01 0.0 0 0 172.78 370.53
  A 2.01 2.01 0.0 0 0 174.79 368.52
  Z"
/>
<path fill="#f7e3d8" d="
  M 74.77 175.93
  Q 75.78 177.26 77.03 178.24
  Q 79.49 180.18 79.53 180.22
  Q 95.46 194.68 106.85 205.39
  C 112.10 210.33 116.86 211.68 124.01 211.56
  Q 136.36 211.35 149.41 211.59
  A 1.68 1.61 86.7 0 1 150.99 213.06
  Q 151.07 213.67 152.27 213.71
  L 153.41 223.61
  A 2.17 2.13 61.1 0 1 152.97 225.18
  L 145.54 234.79
  L 116.78 267.87
  L 84.07 214.51
  L 78.14 204.92
  Q 74.54 197.74 70.92 193.08
  Q 70.15 192.08 67.83 191.67
  Q 66.97 188.36 65.73 187.53
  Q 62.29 185.26 59.14 183.23
  L 59.20 175.13
  A 2.73 2.73 0.0 0 1 62.67 172.52
  L 74.77 175.93
  Z"
/>
<path fill="#926650" d="
  M 190.62 182.06
  Q 193.04 183.95 195.46 184.80
  L 198.81 186.79
  Q 199.94 187.46 199.29 188.60
  C 197.82 191.15 192.96 193.89 191.85 189.24
  Q 190.80 184.81 190.62 182.06
  Z"
/>
<path fill="#926650" d="
  M 187.59 218.33
  Q 186.82 222.66 186.00 226.70
  C 185.66 228.34 184.73 230.47 183.85 231.58
  Q 175.17 242.42 165.99 253.68
  L 145.54 234.79
  L 152.97 225.18
  A 2.17 2.13 61.1 0 0 153.41 223.61
  L 152.27 213.71
  C 151.80 209.24 150.48 203.37 151.40 199.01
  Q 152.66 193.09 154.33 185.16
  Q 155.13 181.39 157.91 184.06
  L 159.12 185.22
  A 7.62 7.60 -62.5 0 1 161.31 192.19
  Q 159.62 200.63 160.63 202.02
  Q 166.51 210.09 172.01 217.94
  Q 173.35 219.85 173.67 221.99
  A 0.80 0.79 76.5 0 0 174.70 222.63
  L 187.59 218.33
  Z"
/>
<path fill="#000000" d="
  M 67.83 191.67
  Q 70.15 192.08 70.92 193.08
  Q 74.54 197.74 78.14 204.92
  Q 77.22 206.41 77.33 208.00
  Q 77.70 213.45 77.18 219.12
  Q 73.41 211.72 69.55 204.55
  Q 67.88 201.45 67.65 198.70
  Q 67.36 195.21 67.83 191.67
  Z"
/>
<path fill="#926650" d="
  M 202.74 211.63
  L 200.83 221.39
  A 0.69 0.68 -81.7 0 1 200.09 221.95
  Q 195.48 221.55 195.26 216.49
  C 196.37 214.91 197.31 213.23 196.86 211.21
  Q 195.15 203.39 193.24 195.90
  A 0.25 0.25 0.0 0 1 193.46 195.59
  C 200.20 195.14 201.30 199.48 204.42 203.99
  Q 204.77 204.50 204.34 204.94
  Q 202.44 206.91 199.39 206.40
  A 0.35 0.34 -14.3 0 0 199.06 206.95
  L 202.74 211.63
  Z"
/>
<path fill="#3a71e9" d="
  M 78.14 204.92
  L 84.07 214.51
  Q 92.46 229.16 95.11 245.53
  Q 96.07 251.47 96.90 256.77
  L 96.62 321.38
  L 96.53 349.01
  C 94.44 350.65 91.73 346.87 91.18 345.26
  Q 84.62 325.83 78.17 306.37
  Q 77.78 305.21 77.80 303.64
  Q 77.81 301.88 77.38 300.84
  L 77.30 285.19
  L 77.18 219.12
  Q 77.70 213.45 77.33 208.00
  Q 77.22 206.41 78.14 204.92
  Z"
/>
<path fill="#f7e3d8" d="
  M 319.00 211.50
  L 319.00 259.20
  Q 319.08 262.66 316.20 257.37
  A 0.86 0.85 57.7 0 0 314.94 257.08
  L 301.61 266.70
  Q 297.41 260.81 293.07 254.85
  Q 288.77 248.93 286.41 247.63
  Q 281.09 244.71 275.27 250.54
  Q 275.15 250.39 275.12 250.22
  Q 275.07 249.92 274.82 250.11
  Q 265.75 257.32 254.66 264.82
  Q 254.13 265.18 254.50 265.70
  L 262.57 276.98
  Q 264.18 279.24 262.42 281.39
  Q 262.04 281.86 261.47 282.13
  Q 258.41 283.55 256.47 280.79
  L 248.82 269.92
  Q 248.48 269.44 248.01 269.79
  L 241.12 274.80
  Q 240.63 275.16 240.98 275.65
  L 255.28 295.79
  Q 256.94 298.12 254.99 300.22
  Q 254.62 300.62 254.09 300.84
  Q 250.99 302.16 249.05 299.40
  L 235.45 280.12
  A 1.07 1.07 0.0 0 0 233.95 279.88
  L 226.91 285.04
  A 1.13 1.12 -36.5 0 0 226.67 286.61
  L 233.88 296.51
  Q 235.93 299.32 233.48 301.78
  Q 233.14 302.12 232.69 302.26
  Q 229.93 303.17 228.48 301.28
  Q 224.80 296.47 220.98 290.58
  A 0.97 0.96 55.4 0 0 219.60 290.32
  L 177.82 320.51
  A 0.74 0.74 0.0 0 0 177.65 321.52
  L 193.00 344.35
  L 181.24 352.16
  Q 181.48 350.85 181.04 349.95
  Q 180.81 349.49 180.30 349.49
  L 159.07 349.51
  A 2.57 2.56 73.4 0 1 156.92 348.34
  L 153.09 342.43
  C 153.63 339.46 154.92 336.11 155.07 333.42
  Q 155.22 330.78 154.27 329.25
  Q 147.61 318.42 141.61 308.48
  Q 149.62 293.18 156.98 278.47
  Q 158.93 274.58 159.19 270.30
  C 159.38 267.35 159.61 265.48 161.21 263.43
  Q 164.03 259.84 167.15 256.17
  Q 167.51 255.75 167.28 255.25
  Q 166.82 254.22 165.99 253.68
  Q 175.17 242.42 183.85 231.58
  C 184.73 230.47 185.66 228.34 186.00 226.70
  Q 186.82 222.66 187.59 218.33
  Q 191.44 216.42 195.26 216.49
  Q 195.48 221.55 200.09 221.95
  A 0.69 0.68 -81.7 0 0 200.83 221.39
  L 202.74 211.63
  L 319.00 211.50
  Z"
/>
<path fill="#000000" d="
  M 84.07 214.51
  L 116.78 267.87
  L 141.61 308.48
  Q 147.61 318.42 154.27 329.25
  Q 155.22 330.78 155.07 333.42
  C 154.92 336.11 153.63 339.46 153.09 342.43
  Q 151.33 342.15 147.25 341.06
  Q 141.73 339.60 139.16 334.76
  Q 119.92 298.45 100.50 262.23
  Q 99.49 260.35 96.90 256.77
  Q 96.07 251.47 95.11 245.53
  Q 92.46 229.16 84.07 214.51
  Z"
/>
<path fill="#22448c" d="
  M 145.54 234.79
  L 165.99 253.68
  Q 166.82 254.22 167.28 255.25
  Q 167.51 255.75 167.15 256.17
  Q 164.03 259.84 161.21 263.43
  C 159.61 265.48 159.38 267.35 159.19 270.30
  Q 158.93 274.58 156.98 278.47
  Q 149.62 293.18 141.61 308.48
  L 116.78 267.87
  L 145.54 234.79
  Z"
/>
<path fill="#efc1a9" d="
  M 301.61 266.70
  Q 307.44 274.76 313.32 282.47
  Q 314.94 284.58 315.72 284.85
  Q 317.48 285.44 319.00 286.17
  L 319.00 288.55
  L 248.32 339.38
  Q 236.40 344.67 225.03 350.03
  C 222.45 351.25 219.73 352.17 216.88 351.67
  C 212.26 350.84 211.32 345.32 215.37 342.86
  Q 221.18 339.34 224.95 335.05
  Q 226.58 334.64 228.13 333.35
  Q 230.44 331.42 230.52 331.37
  Q 260.64 309.57 290.75 287.75
  C 293.57 285.70 291.82 283.47 290.42 281.38
  Q 283.14 270.53 275.89 260.85
  Q 272.50 256.33 275.27 250.54
  Q 281.09 244.71 286.41 247.63
  Q 288.77 248.93 293.07 254.85
  Q 297.41 260.81 301.61 266.70
  Z"
/>
<path fill="#ffffff" d="
  M 275.27 250.54
  Q 272.50 256.33 275.89 260.85
  Q 283.14 270.53 290.42 281.38
  C 291.82 283.47 293.57 285.70 290.75 287.75
  Q 260.64 309.57 230.52 331.37
  Q 230.44 331.42 228.13 333.35
  Q 226.58 334.64 224.95 335.05
  Q 226.40 331.45 223.51 330.82
  A 1.65 1.60 -52.8 0 0 222.40 330.99
  C 215.63 334.76 208.94 338.64 201.50 341.23
  Q 197.04 342.77 193.00 344.35
  L 177.65 321.52
  A 0.74 0.74 0.0 0 1 177.82 320.51
  L 219.60 290.32
  A 0.97 0.96 55.4 0 1 220.98 290.58
  Q 224.80 296.47 228.48 301.28
  Q 229.93 303.17 232.69 302.26
  Q 233.14 302.12 233.48 301.78
  Q 235.93 299.32 233.88 296.51
  L 226.67 286.61
  A 1.13 1.12 -36.5 0 1 226.91 285.04
  L 233.95 279.88
  A 1.07 1.07 0.0 0 1 235.45 280.12
  L 249.05 299.40
  Q 250.99 302.16 254.09 300.84
  Q 254.62 300.62 254.99 300.22
  Q 256.94 298.12 255.28 295.79
  L 240.98 275.65
  Q 240.63 275.16 241.12 274.80
  L 248.01 269.79
  Q 248.48 269.44 248.82 269.92
  L 256.47 280.79
  Q 258.41 283.55 261.47 282.13
  Q 262.04 281.86 262.42 281.39
  Q 264.18 279.24 262.57 276.98
  L 254.50 265.70
  Q 254.13 265.18 254.66 264.82
  Q 265.75 257.32 274.82 250.11
  Q 275.07 249.92 275.12 250.22
  Q 275.15 250.39 275.27 250.54
  Z"
/>
<path fill="#ffffff" d="
  M 319.00 259.20
  L 319.00 286.17
  Q 317.48 285.44 315.72 284.85
  Q 314.94 284.58 313.32 282.47
  Q 307.44 274.76 301.61 266.70
  L 314.94 257.08
  A 0.86 0.85 57.7 0 1 316.20 257.37
  Q 319.08 262.66 319.00 259.20
  Z"
/>
<path fill="#172d5d" d="
  M 77.30 285.19
  L 77.38 300.84
  Q 75.17 297.69 73.49 292.50
  Q 70.89 284.43 68.41 276.31
  C 67.80 274.31 66.92 272.41 66.23 270.46
  Q 66.02 269.84 66.65 269.70
  Q 66.96 269.64 67.10 269.90
  C 69.41 274.11 71.92 279.08 75.09 282.56
  Q 76.23 283.81 77.30 285.19
  Z"
/>
<path fill="#172d5d" d="
  M 0.00 287.68
  Q 0.86 288.16 1.54 289.60
  Q 2.57 291.76 2.59 291.79
  Q 27.32 336.95 52.12 382.08
  Q 54.21 385.88 58.42 388.98
  Q 59.20 389.56 58.23 389.61
  L 51.36 390.00
  L 50.21 390.00
  L 44.65 390.00
  L 35.70 390.00
  L 32.78 389.54
  Q 28.96 382.57 27.09 377.68
  Q 13.96 343.33 0.75 308.80
  Q 0.27 308.27 0.00 306.46
  L 0.00 287.68
  Z"
/>
<path fill="#f7e3d8" d="
  M 319.00 288.55
  L 319.00 352.51
  L 241.43 352.49
  Q 242.37 351.39 243.41 350.40
  Q 244.53 349.34 245.05 348.15
  Q 246.78 344.16 248.32 339.38
  L 319.00 288.55
  Z"
/>
<path fill="#ffffff" d="
  M 0.00 306.46
  Q 0.27 308.27 0.75 308.80
  L 0.00 314.25
  L 0.00 306.46
  Z"
/>
<path fill="#efc1a9" d="
  M 0.75 308.80
  Q 13.96 343.33 27.09 377.68
  Q 28.96 382.57 32.78 389.54
  L 29.73 390.00
  L 24.90 390.00
  L 0.00 389.80
  L 0.00 314.25
  L 0.75 308.80
  Z"
/>
<path fill="#172d5d" d="
  M 96.62 321.38
  Q 100.96 327.63 104.53 333.94
  Q 107.10 338.47 108.93 339.78
  Q 112.01 341.99 116.24 342.09
  Q 123.78 342.28 131.32 342.28
  C 136.34 342.28 139.11 345.05 142.02 348.57
  A 0.42 0.42 0.0 0 1 141.72 349.26
  Q 139.52 349.37 137.50 349.39
  Q 119.22 349.50 98.00 349.47
  Q 97.29 349.47 96.53 349.01
  L 96.62 321.38
  Z"
/>
<path fill="#926650" d="
  M 224.95 335.05
  Q 221.18 339.34 215.37 342.86
  C 211.32 345.32 212.26 350.84 216.88 351.67
  C 219.73 352.17 222.45 351.25 225.03 350.03
  Q 236.40 344.67 248.32 339.38
  Q 246.78 344.16 245.05 348.15
  Q 244.53 349.34 243.41 350.40
  Q 242.37 351.39 241.43 352.49
  L 235.36 359.94
  Q 234.86 360.55 234.17 360.91
  L 214.75 370.98
  Q 209.51 371.92 207.75 371.93
  Q 195.13 371.95 181.63 371.95
  L 181.24 352.16
  L 193.00 344.35
  Q 197.04 342.77 201.50 341.23
  C 208.94 338.64 215.63 334.76 222.40 330.99
  A 1.65 1.60 -52.8 0 1 223.51 330.82
  Q 226.40 331.45 224.95 335.05
  Z"
/>
<path fill="#333333" d="
  M 319.00 352.51
  L 319.00 371.67
  Q 268.46 371.90 237.25 371.65
  Q 225.18 371.55 219.25 371.73
  Q 218.21 371.77 214.75 370.98
  L 234.17 360.91
  Q 234.86 360.55 235.36 359.94
  L 241.43 352.49
  L 319.00 352.51
  Z"
/>
<circle fill="#ffffff" cx="172.78" cy="368.52" r="2.01"/>
<path fill="#000000" d="
  M 214.75 370.98
  Q 218.21 371.77 219.25 371.73
  Q 225.18 371.55 237.25 371.65
  Q 268.46 371.90 319.00 371.67
  L 319.00 389.80
  L 134.50 389.76
  Q 136.79 388.56 140.09 388.70
  Q 141.71 388.77 142.86 388.32
  Q 144.33 387.75 145.39 386.68
  Q 148.55 383.51 151.81 380.47
  C 158.16 374.55 166.75 376.14 174.56 375.95
  C 176.67 375.90 178.65 375.42 180.09 373.71
  Q 180.96 372.67 181.63 371.95
  Q 195.13 371.95 207.75 371.93
  Q 209.51 371.92 214.75 370.98
  Z"
/>
<path fill="#ffffff" d="
  M 32.78 389.54
  L 35.70 390.00
  L 29.73 390.00
  L 32.78 389.54
  Z"
/>
<path fill="#ffffff" d="
  M 319.00 389.80
  Q 319.00 389.90 319.00 390.00
  L 107.40 390.00
  L 134.50 389.76
  L 319.00 389.80
  Z"
/>
<path fill="#ffffff" d="
  M 0.00 389.80
  L 24.90 390.00
  L 0.00 390.00
  Q 0.00 389.90 0.00 389.80
  Z"
/>
<path fill="#ffffff" d="
  M 50.21 390.00
  L 44.65 390.00
  L 50.21 390.00
  Z"
/>
</svg>
