<?xml version="1.0" encoding="utf-8" ?>
<svg xmlns="http://www.w3.org/2000/svg" xmlns:xlink="http://www.w3.org/1999/xlink" width="1024" height="1024">
	<path transform="scale(1.6 1.6)" d="M130.034 309.75L129.613 309.802C127.409 310.039 125.413 309.63 123.344 308.867L122.969 308.734C104.287 301.933 116.522 281.956 123.479 271.659C182.546 184.231 314.374 181.384 374.07 270.312C379.208 277.966 388.026 290.197 383.895 299.882C381.005 306.655 372.599 311.814 365.292 309.447C363.41 308.073 361.21 306.552 359.062 305.647L358.121 306.214C320.771 220.516 202.41 209.067 148.809 286.866L141.794 297.839C136.399 306.611 137.558 304.976 130.034 309.75Z"/>
	<path transform="scale(1.6 1.6)" d="M365.28 397.081C370.422 397.05 375.59 396.674 380.741 396.654L546.417 396.59C556.577 396.59 571.499 394.586 574.729 408.281L574.816 408.615C575.289 410.531 575.137 412.763 575.138 414.734L575.079 435.706C575.063 438.526 575.563 441.812 574.219 444.394L574.002 444.837C571.105 450.666 565.938 452.831 559.812 452.788L559.883 471.039C559.889 473.766 560.518 478.694 559.165 481.02L558.983 481.347C557.051 484.74 554.663 484.086 551.205 484.089L525.557 484.089C513.11 484.074 510.558 485.896 510.528 471.664C510.514 465.121 510.814 458.418 510.378 451.897L335.519 451.887C333.568 451.89 331.46 452.056 329.529 451.845C327.601 450.581 325.677 450.125 323.439 449.831L323.817 449.618C339.712 440.608 356.74 413.321 361.271 396.795C362.673 397.128 363.844 397.172 365.28 397.081Z"/>
	<path fill="#038DFF" transform="scale(1.6 1.6)" d="M130.034 309.75C137.558 304.976 136.399 306.611 141.794 297.839L148.809 286.866C202.41 209.067 320.771 220.516 358.121 306.214L359.062 305.647C361.21 306.552 363.41 308.073 365.292 309.447L365.395 310.07C365.731 311.965 366.511 313.838 367.062 315.683L370.07 326.306C375.038 346.215 374.787 369.126 368.221 388.75L366.161 394.371C365.844 395.172 365.219 396.241 365.28 397.081C363.844 397.172 362.673 397.128 361.271 396.795C356.74 413.321 339.712 440.608 323.817 449.618L323.439 449.831C325.677 450.125 327.601 450.581 329.529 451.837C325.849 453.889 322.422 456.951 318.929 459.36C283.342 483.901 237.474 490.618 197.188 472.841C151.56 452.707 121.237 407.127 121.038 357.313C120.971 340.672 123.239 325.196 130.034 309.75ZM246.417 280.468C178.436 283.597 146.814 364.855 197.338 410.639C211.91 423.844 229.261 429.187 248.671 429.118C288.39 427.963 321.522 395.798 321.629 356.034C321.74 314.36 288.636 279.518 246.417 280.468Z"/>
	<path transform="scale(1.6 1.6)" d="M242.956 312.684C278.913 309.002 304.033 352.487 280.612 380.966C272.627 390.676 263.116 395.737 250.841 396.91C247.478 397.057 244.024 397.133 240.687 396.618L240.156 396.531C192.933 389.052 194.031 319.022 242.956 312.684Z"/>
</svg>
