<?xml version="1.0" encoding="utf-8" ?>
<svg xmlns="http://www.w3.org/2000/svg" xmlns:xlink="http://www.w3.org/1999/xlink" width="1024" height="1024">
	<path transform="scale(1.6 1.6)" d="M445.283 430.963C450.959 375.894 524.754 379.873 529.552 427.543C529.61 428.121 529.82 431.242 530.207 431.547L530.248 432.418C530.157 487.546 445.236 489.489 445.283 430.963Z"/>
	<path transform="scale(1.6 1.6)" d="M132.461 98.9062L132.706 98.8511C137.087 98.3799 140.852 104.362 141.222 108.027C141.657 112.331 127.021 121.784 123.508 126.507C115.32 137.516 128.756 153.335 141.301 150.849L141.875 150.73C148.461 149.43 153.174 145.145 156.043 139.129C158.155 134.7 156.086 130.064 157.81 125.869C167.318 117.749 173.105 125.171 171.623 136.09L171.555 136.562C171.054 140.273 170.006 144.054 168.202 147.354L166.197 150.801C159.49 160.504 154.28 161.326 144.525 164.68L144.661 185.954C145.827 187.854 148.053 189.269 149.467 191.118L174.021 224.482C176.488 227.864 181.495 233.463 180.805 238.001L180.731 238.438C179.664 245.098 173.931 252.115 170.06 257.435L157.172 272.739C133.233 298.94 114.453 271.731 100.611 252.155C87.4381 233.524 94.4523 232.092 106.33 215.607C113.726 205.342 120.715 194.012 129.72 185.113L130.077 164.633C129.058 163.147 126.116 163.282 124.493 162.44L120.965 160.391C114.321 155.869 109.292 148.419 107.784 140.495L107.695 140.015C106.959 136.268 106.592 131.416 107.595 127.702L107.743 127.188C110.285 118.017 116.58 113.473 122.969 106.917C126.021 103.785 127.982 100.104 132.461 98.9062Z"/>
	<path transform="scale(1.6 1.6)" d="M380.71 431.034C379.625 431.21 377.996 431.021 376.401 431.007L222.27 430.98C221.568 432.771 221.899 435.211 221.608 437.143C214.294 485.656 147.01 487.302 137.274 440.075C136.813 437.839 136.954 432.191 136.343 430.901L117.852 431.025C115.272 431.029 112.408 431.377 109.874 431.036L109.531 430.987C101.597 430.005 95.3504 424.693 95.1082 416.513L95.102 379.274C95.3539 363.696 102.159 362.767 114.488 362.783L379.944 362.81C380.962 367.662 380.683 372.435 380.693 376.89L380.765 421.933C380.772 424.906 381.057 428.089 380.71 431.034Z"/>
	<path fill="#038DFF" transform="scale(1.6 1.6)" d="M380.47 363.246C379.201 355.698 379.53 347.945 379.528 340.37L379.498 275.549C379.495 265.605 378.911 251.556 393.489 250.887L459.869 250.864C472.453 250.854 474.801 250.675 482.143 262.69L519.474 329.64C521.618 333.451 523.889 338.111 526.928 341.248C538.927 341.503 550.948 341.327 559.879 350.751C565.988 357.197 568.478 364.866 568.534 373.474L568.47 417.297C568.416 418.788 568.306 420.151 567.926 421.598L567.821 422.036C567.088 424.959 564.377 427.764 561.804 429.276L559.943 430.217C554.793 432.697 537.617 430.369 530.207 431.494C529.82 431.242 529.61 428.121 529.552 427.543C524.754 379.873 450.959 375.894 445.283 430.963L381.203 430.986C381.057 428.089 380.772 424.906 380.765 421.933L380.693 376.89C380.683 372.435 380.962 367.662 380.47 363.246Z"/>
</svg>
